<?xml version="1.0" encoding="UTF-8"?>
<!-- Created with Inkscape (http://www.inkscape.org/) -->
<svg width="471.58mm" height="786.15mm" version="1.1" viewBox="0 0 471.58 786.15" xmlns="http://www.w3.org/2000/svg">
 <g stroke-width="2.088">
  <path d="m92.82 64.987c3.9192 8.3938 22.323 48.024 26.476 56.827-1.1192 0.79762-2.2321 1.6057-3.3346 2.4242l0.32156 0.68278-0.0292 0.0418 18.02 38.538c26.163-17.331 54.566-27.817 84.053-30.79 5.8506-0.61388 11.783-0.92708 17.79-0.92708 12.785 0 25.244 1.4011 37.242 4.1489 22.024 4.8609 43.266 13.983 63.215 27.079l17.036-36.626 1.4219-3.0485c-1.3029-0.95422-2.6226-1.8855-3.9484-2.8084 3.8691-8.1683 22.164-47.339 26.123-55.817l7.7778 4.3723 11.112-19.782-10.595-5.9571-4.9402 8.7926-6.1868-3.4786 4.9361-8.7926-10.58-5.9613-4.9361 8.7968-6.2077-3.4891 4.9444-8.7905-10.59-5.9529-11.117 19.78 8.208 4.6166c-0.58673 0.87697-1.4136 2.1193-2.4325 3.6478l-6.9573-2.5599-2.2133 5.8402-4.0988-1.4804 2.2028-5.8297-8.8532-3.1863-2.1882 5.8339-4.0988-1.4783 2.2028-5.8423-5.9091-2.1319c0.47816-2.3365 0.86235-4.2261 1.1192-5.4831l8.5817 2.4367 6.193-21.83-11.685-3.3283-2.7562 9.7114-6.832-1.9398 2.7478-9.7072-11.685-3.3158-2.7395 9.7093-6.8466-1.9439 2.7541-9.703-11.689-3.3179-6.1889 21.83 9.0599 2.5724c-0.4176 1.1359-1.0315 2.8042-1.7894 4.8692l-6.7547-1.0795-0.97093 6.1555-4.4224-0.7141 0.96675-6.1576-9.3877-1.5201-0.97511 6.1596-4.4141-0.71619 0.97093-6.1576-7.4605-1.2006c-0.13572-1.802-0.24847-3.2698-0.32573-4.3138h8.9158v-22.69h-12.15v10.087h-7.1055v-10.087h-12.142v10.087h-7.1076v-10.087h-12.144v22.69h9.4128c-0.0814 1.0482-0.1921 2.5244-0.3299 4.3326l-7.4563 1.2048 0.97092 6.1763-4.4245 0.7141-0.9751-6.1763-9.3814 1.5242 0.97093 6.1743-4.4308 0.71619-0.97301-6.1722-7.1076 1.1421c-0.77674-2.1527-1.4052-3.9004-1.8375-5.1261l8.9033-2.2049-5.4622-22.022-11.791 2.9086 2.4263 9.7949-6.8967 1.708-2.4284-9.7886-11.787 2.9149 2.4242 9.7949-6.9009 1.7101-2.42-9.797-11.793 2.9274 5.4497 22.024 8.92-2.2091c0.21925 1.2278 0.59091 3.4181 1.0753 6.3142l-6.761 2.4847 2.1778 5.8527-4.2157 1.5451-2.1653-5.8402-8.9325 3.2719 2.1736 5.8423-4.2074 1.5389-2.1653-5.8318-7.0992 2.6058c-0.99598-1.4971-1.8208-2.7332-2.3991-3.5997l7.7758-4.3723-11.119-19.778-10.597 5.9508 4.9486 8.7989-6.1868 3.4765-4.9507-8.7926-10.584 5.9508 4.9444 8.7926-6.193 3.4849-4.9444-8.7947-10.586 5.955 11.117 19.778z" fill="#b99a4a"/>
  <path d="m235.78 786.15c-63.089 0-122.36-34.097-166.9-96.015-44.423-61.757-68.886-143.84-68.886-231.14 0-87.302 24.463-169.39 68.886-231.14 44.539-61.922 103.81-96.024 166.9-96.024 63.085 0 122.35 34.101 166.89 96.024 44.425 61.761 68.892 143.85 68.892 231.14 0 87.292-24.467 169.38-68.892 231.14-44.539 61.918-103.81 96.015-166.89 96.015" fill="#b3b7b3"/>
  <path d="m235.55 182.47c-100.51 0-182.28 123.11-182.28 274.45 0 151.32 81.771 274.43 182.28 274.43 100.51 0 182.28-123.11 182.28-274.43 0-151.33-81.771-274.45-182.28-274.45" fill="#1e5cb3"/>
  <g fill="#231f20">
   <path d="m438.14 463.71c0-2.2968-0.39672-4.057-1.1943-5.2868-0.73081-1.1588-1.7414-1.7414-3.0318-1.7414-1.6454 0-2.7311 0.76631-3.2594 2.2926-0.25474 0.71619-0.37793 1.6996-0.37793 2.9587 0 3.2636 0.56167 5.575 1.7101 6.9197 0.64729 0.7663 1.4762 1.1484 2.4743 1.1484 2.4492 0 3.6791-2.088 3.6791-6.2912m5.0342-2.443c0 4.2721-1.4157 7.4667-4.2491 9.5819-1.3405 0.9939-3.0026 1.495-5.0112 1.495-2.8167 0-5.0196-1.0941-6.619-3.2991-1.6454-2.2154-2.4764-5.3537-2.4764-9.4002 0-3.9108 0.66608-7.1577 1.9836-9.7364 1.4011-2.727 3.2322-4.8964 5.4936-6.4979 2.3511-1.6391 4.9423-2.4639 7.8008-2.4639l1.6454 1.447-0.63475 0.7496c-0.49277-0.0877-0.96258-0.12946-1.4094-0.12946-2.1423 0-4.0069 0.83521-5.6188 2.5077-0.72454 0.75795-1.3551 1.7184-1.8938 2.8668-0.89158 1.9377-1.4929 4.5811-1.7999 7.9386 1.8646-1.8521 2.9859-2.8501 3.3596-3.0193 0.88532-0.4009 1.921-0.60134 3.0903-0.60134 1.7978 0 3.274 0.71201 4.4391 2.134 1.2695 1.5389 1.9001 3.6832 1.9001 6.4269"/>
   <path d="m463.81 460.65c0 3.2051-1.1442 5.9404-3.464 8.2059-2.372 2.349-5.2889 3.5141-8.7342 3.5141-1.4867 0-3.0861-0.34243-4.8108-1.0377-0.0773-0.84773-0.51992-2.9274-1.3363-6.2286l0.13781-0.31737 1.0043-0.37585 0.29023 0.13781c1.3864 3.4285 3.6206 5.1323 6.6837 5.1323 2.1778 0 3.7-1.0169 4.5957-3.0443 0.39881-0.92082 0.6097-1.9878 0.6097-3.2009 0-1.9878-0.50321-3.5496-1.5055-4.698-0.99181-1.1547-2.3678-1.7247-4.1364-1.7247-1.5973 0-3.1696 0.62432-4.7565 1.8604l-0.82477-0.4886c0.16913-2.8522 0.27353-5.195 0.27353-7.0053v-3.0631c0-2.1945-0.10858-4.4997-0.32364-6.9218l0.27353-0.21715c3.3596 0.15869 6.1868 0.24639 8.4648 0.24639 1.4908 0 3.5976-0.0877 6.3371-0.24639l0.18583 0.35496c-0.16704 1.4637-0.24429 2.5202-0.24429 3.1759 0 0.37584 0.0125 0.88741 0.0585 1.543l-0.21924 0.28606c-1.6996-0.096-3.7522-0.13572-6.145-0.13572-2.8543 0-4.9089 0.0585-6.1534 0.17748l-0.15452 7.2746c2.0128-1.0252 3.8879-1.541 5.623-1.541 2.5578 0 4.5602 0.76212 6.0552 2.2697 1.4762 1.5138 2.2154 3.5392 2.2154 6.0678"/>
   <path d="m25.203 471.42-0.24221 0.26727c-1.9419-0.13573-4.318-0.19419-7.1201-0.19419-2.7228 0-5.6021 0.0585-8.6256 0.19419l-0.22133-0.2443v-1.353l0.24639-0.21924c0.70992-0.0919 1.3927-0.16495 2.0421-0.22759 1.2027-0.10231 1.969-0.22968 2.2926-0.38419 0.23803-0.11485 0.44684-0.38211 0.62432-0.81015 0.25056-0.6974 0.37376-3.5141 0.37376-8.4523v-5.5395c0-1.6641-0.01879-3.771-0.06473-6.3142l-0.04594-1.6683c0-0.74124-0.14407-1.1108-0.44057-1.1108-0.1211 0-0.52827 0.17331-1.2278 0.5053-1.8959 0.93334-3.5267 1.7644-4.8901 2.466l-0.24221-0.14617c-0.091873-0.84355-0.23595-1.7873-0.44684-2.8251l0.022968-0.17957c3.8252-1.1609 8.1015-2.7019 12.829-4.65l0.44684 0.33409c-0.06264 0.87487-0.13154 2.1694-0.22342 3.892-0.04385 0.64729-0.0877 2.3991-0.13363 5.2451l-0.06682 8.7425c0 6.262 0.10022 9.6174 0.29232 10.073 0.14407 0.34661 0.35914 0.54915 0.64311 0.62014 0.49068 0.14616 1.7957 0.28397 3.915 0.4009l0.26309 0.21924z"/>
   <path d="m42.03 463.83c0-2.2885-0.40299-4.057-1.2027-5.2868-0.72454-1.1588-1.7331-1.733-3.0255-1.733-1.6412 0-2.7332 0.75586-3.2657 2.2843-0.25056 0.7141-0.37793 1.6996-0.37793 2.9587 0 3.2636 0.57003 5.575 1.7143 6.9197 0.65146 0.7663 1.472 1.1484 2.4659 1.1484 2.4618 0 3.6916-2.088 3.6916-6.2912m5.0279-2.443c0 4.2721-1.4198 7.4667-4.2512 9.5819-1.3322 0.9939-3.0005 1.495-5.005 1.495-2.8146 0-5.0217-1.0941-6.6211-3.2907-1.6495-2.2258-2.4701-5.362-2.4701-9.4086 0-3.9108 0.65981-7.1577 1.9794-9.7385 1.4073-2.7249 3.2343-4.8943 5.4915-6.4958 2.3428-1.6391 4.9444-2.466 7.805-2.466l1.6454 1.4491-0.64311 0.75795c-0.4886-0.096-0.95631-0.13781-1.4011-0.13781-2.136 0-4.009 0.83521-5.6272 2.5077-0.72663 0.76212-1.3593 1.7184-1.8876 2.8668-0.88949 1.9377-1.495 4.5811-1.8061 7.9365 1.8688-1.85 2.9879-2.848 3.3596-3.0172 0.88741-0.4009 1.9189-0.60134 3.0903-0.60134 1.7915 0 3.2782 0.71618 4.4454 2.136 1.2632 1.5368 1.8959 3.6895 1.8959 6.4248"/>
   <path d="m25.203 471.42-0.24221 0.26727c-1.9419-0.13573-4.318-0.19419-7.1201-0.19419-2.7228 0-5.6021 0.0585-8.6256 0.19419l-0.22133-0.2443v-1.353l0.24639-0.21924c0.70992-0.0919 1.3927-0.16495 2.0421-0.22759 1.2027-0.10231 1.969-0.22968 2.2926-0.38419 0.23803-0.11485 0.44684-0.38211 0.62432-0.81015 0.25056-0.6974 0.37376-3.5141 0.37376-8.4523v-5.5395c0-1.6641-0.01879-3.771-0.06473-6.3142l-0.04594-1.6683c0-0.74124-0.14407-1.1108-0.44057-1.1108-0.1211 0-0.52827 0.17331-1.2278 0.5053-1.8959 0.93334-3.5267 1.7644-4.8901 2.466l-0.24221-0.14617c-0.091873-0.84355-0.23595-1.7873-0.44684-2.8251l0.022968-0.17957c3.8252-1.1609 8.1015-2.7019 12.829-4.65l0.44684 0.33409c-0.06264 0.87487-0.13154 2.1694-0.22342 3.892-0.04385 0.64729-0.0877 2.3991-0.13363 5.2451l-0.06682 8.7425c0 6.262 0.10022 9.6174 0.29232 10.073 0.14407 0.34661 0.35914 0.54915 0.64311 0.62014 0.49068 0.14616 1.7957 0.28397 3.915 0.4009l0.26309 0.21924z"/>
   <path d="m42.03 463.83c0-2.2885-0.40299-4.057-1.2027-5.2868-0.72454-1.1588-1.7331-1.733-3.0255-1.733-1.6412 0-2.7332 0.75586-3.2657 2.2843-0.25056 0.7141-0.37793 1.6996-0.37793 2.9587 0 3.2636 0.57003 5.575 1.7143 6.9197 0.65146 0.7663 1.472 1.1484 2.4659 1.1484 2.4618 0 3.6916-2.088 3.6916-6.2912m5.0279-2.443c0 4.2721-1.4198 7.4667-4.2512 9.5819-1.3322 0.9939-3.0005 1.495-5.005 1.495-2.8146 0-5.0217-1.0941-6.6211-3.2907-1.6495-2.2258-2.4701-5.362-2.4701-9.4086 0-3.9108 0.65981-7.1577 1.9794-9.7385 1.4073-2.7249 3.2343-4.8943 5.4915-6.4958 2.3428-1.6391 4.9444-2.466 7.805-2.466l1.6454 1.4491-0.64311 0.75795c-0.4886-0.096-0.95631-0.13781-1.4011-0.13781-2.136 0-4.009 0.83521-5.6272 2.5077-0.72663 0.76212-1.3593 1.7184-1.8876 2.8668-0.88949 1.9377-1.495 4.5811-1.8061 7.9365 1.8688-1.85 2.9879-2.848 3.3596-3.0172 0.88741-0.4009 1.9189-0.60134 3.0903-0.60134 1.7915 0 3.2782 0.71618 4.4454 2.136 1.2632 1.5368 1.8959 3.6895 1.8959 6.4248"/>
   <path d="m159.21 195.6-0.0418 0.32364c-1.1776 0.80806-2.965 2.1507-5.3495 4.0215-2.4325 1.9084-4.1572 3.322-5.1804 4.2387l-0.29441-0.0397-0.96466-1.2319 0.0355-0.32365c1.1066-0.98554 1.7268-1.5639 1.8542-1.7477 0.26936-0.36332 0.28606-0.73707 0.0564-1.1296-0.52409-0.99389-1.9168-2.9316-4.176-5.8151l-3.4285-4.3744c-0.64519 0.4009-2.5202 1.8228-5.6314 4.2637-2.871 2.2488-4.7377 3.7605-5.598 4.5331l3.4348 4.3765c2.255 2.8815 3.8023 4.7043 4.6312 5.4602 0.332 0.30276 0.70157 0.37793 1.1066 0.21506 0.2088-0.0814 0.91873-0.54497 2.1444-1.3844l0.31947 0.0418 0.95631 1.2173-0.023 0.30485c-1.1923 0.82059-2.9775 2.1611-5.3495 4.0215-2.4492 1.9189-4.1739 3.3325-5.1825 4.2408l-0.29023-0.0334-0.97093-1.2403 0.0209-0.30485c1.1046-0.98555 1.7247-1.5681 1.8562-1.7477 0.261-0.36331 0.27979-0.73916 0.0543-1.1338-0.52201-0.98972-1.9168-2.9295-4.1781-5.8151l-7.5315-9.6007c-2.2613-2.8856-3.8106-4.7001-4.65-5.4497-0.32365-0.30902-0.69322-0.38628-1.1066-0.21298-0.21089 0.0814-0.9229 0.54289-2.1444 1.3823l-0.30068-0.0522-0.97301-1.234 0.0376-0.29649c1.1547-0.78927 2.942-2.1298 5.3495-4.0153 2.4847-1.9481 4.2115-3.3596 5.1845-4.2408l0.29024 0.0334 0.98137 1.257-0.0522 0.30485c-1.1025 0.98554-1.7226 1.5681-1.8562 1.7498-0.25056 0.35287-0.26727 0.72662-0.0543 1.1234 0.5408 0.98972 1.9377 2.9211 4.199 5.8068l2.3448 2.9921c1.2591-0.88532 2.9524-2.1632 5.0718-3.8232 3.3241-2.6142 5.3787-4.27 6.1576-4.9757l-2.3532-2.9963c-2.2592-2.8856-3.8044-4.7001-4.65-5.4435-0.32155-0.3132-0.69113-0.38628-1.1066-0.21715-0.20671 0.0814-0.91872 0.54497-2.136 1.3844l-0.3299-0.0397-0.96467-1.2361 0.0313-0.29232c1.163-0.78927 2.9483-2.1298 5.3537-4.0173 2.4826-1.9481 4.2136-3.3617 5.1824-4.2387l0.30903 0.0209 0.98346 1.2486-0.0355 0.29441c-1.1317 1.0022-1.7539 1.5932-1.873 1.7644-0.25056 0.35079-0.26935 0.73081-0.0564 1.1275 0.53662 0.98554 1.9398 2.917 4.2011 5.8005l7.5294 9.607c2.2571 2.8815 3.8023 4.7001 4.6291 5.4602 0.33617 0.30277 0.70366 0.37585 1.1066 0.21507 0.2088-0.0814 0.92291-0.54288 2.1465-1.3864l0.31738 0.0418z"/>
   <path d="m180.01 171.74-8.9868-9.3272 0.6097 12.877c1.1129-0.42386 2.5369-1.0022 4.2825-1.7393 1.6996-0.72037 3.0631-1.3217 4.0946-1.8103m17.527 6.0636-0.0793 0.28606c-2.9984 1.1672-4.8087 1.8792-5.433 2.1465-2.4472 1.0377-4.7147 2.0442-6.786 3.0255l-0.26309-0.13781-0.56377-1.3405 0.0919-0.31529 1.6996-0.84565c0.7141-0.35287 0.96675-0.78509 0.75169-1.2987-0.12737-0.29441-0.59718-0.88323-1.399-1.7623l-3.535-3.7897c-1.8416 0.74542-3.7208 1.5242-5.6481 2.3407-1.0357 0.44057-2.5724 1.1066-4.6166 2.0087l0.20045 2.9671c0.1733 2.255 0.36123 3.6227 0.57212 4.1196 0.22759 0.5408 0.67234 0.72872 1.3384 0.55959 0.38002-0.0919 1.0837-0.31947 2.1152-0.68905l0.30067 0.1232 0.57421 1.3572-0.12319 0.30276c-2.5014 0.95422-4.1009 1.5848-4.8087 1.8855-0.54288 0.23177-1.8771 0.84773-4.0048 1.8458l-0.27562-0.10858-0.58464-1.3802 0.12319-0.30485c1.3363-0.66608 2.0567-1.3134 2.159-1.9398 0.0981-0.63058 0.0271-4.0821-0.22551-10.357l-0.6452-16.09c-0.0752-1.2403-0.1733-3.109-0.30276-5.6105l2.8543-1.209 21.826 22.01c0.83312 0.83311 1.4407 1.2444 1.8208 1.2319 0.51365-0.0146 1.1881-0.19836 2.0212-0.55332l0.27144 0.15869z"/>
   <path d="m229.65 165.21c-0.0209 2.2655 0.14616 4.8003 0.5053 7.6108l-0.20045 0.261-15.673 1.8521c-2.6246 0.33617-4.4663 0.61597-5.5228 0.84356l-0.25892-0.19627-0.0814-0.64311 0.0814-0.28606c0.97511-0.85817 1.4888-1.3802 1.543-1.5702 0.10022-0.29649 0.0585-1.3175-0.13572-3.0777l-0.58674-5.1365-1.4762-11.605c-0.46354-3.6352-0.86444-5.9884-1.2027-7.0617-0.11693-0.43848-0.39881-0.68278-0.84147-0.75169-0.2255-0.0334-1.0732-6e-3 -2.5495 0.0919l-0.23177-0.20672-0.20045-1.5556 0.18165-0.23177c1.4929-0.094 3.6707-0.32782 6.5418-0.69322 2.9587-0.38002 5.1971-0.70783 6.713-0.99598l0.25891 0.17957 0.19836 1.5744-0.20462 0.24221c-1.4533 0.27562-2.2843 0.45936-2.4889 0.54915-0.39673 0.17122-0.60135 0.48442-0.62432 0.93543-0.0418 1.1275 0.16495 3.5016 0.63058 7.1327l1.7393 13.691c0.25891 2.0024 0.54497 3.9338 0.85817 5.7984l2.9295-0.37167c4.199-0.53244 6.7485-1.0398 7.6484-1.5117 0.14407-0.0752 0.25265-0.17748 0.31111-0.29232 0.10858-0.23386 0.19001-0.70993 0.23804-1.424l0.13989-2.9044 0.19628-0.2798 1.3092-0.16704z"/>
   <path d="m270.22 159.95c0.70157-4.2011 0.28188-7.592-1.2591-10.181-0.79554-1.3509-1.9043-2.3991-3.3095-3.132-1.3676-0.70157-3.322-1.2653-5.8673-1.6913-1.3301-0.22968-2.6246-0.34661-3.8795-0.35287-0.41969 1.6746-1.1818 5.7734-2.2759 12.296l-1.6391 9.9536c-0.35496 2.2175-0.55124 3.7-0.58882 4.4433 1.2298 0.42595 2.4994 0.74751 3.8148 0.97093 2.8439 0.47815 5.1449 0.41342 6.9447-0.18793 1.9314-0.65563 3.6144-2.04 5.0467-4.1531 1.4762-2.1841 2.4826-4.84 3.013-7.9658m6.7506 0.0167c-0.8707 5.1449-3.1738 9.1392-6.9113 11.987-1.8082 1.3948-3.89 2.3636-6.2536 2.9003-2.5202 0.58255-5.3516 0.58255-8.492-4e-3l-7.5315-1.4157c-2.0546-0.38002-3.7605-0.61806-5.1219-0.72455l-0.18374-0.26309 0.11484-0.64102 0.15451-0.25265c1.1839-0.53244 1.8228-0.88323 1.9377-1.0565 0.18165-0.24847 0.42804-1.2445 0.76003-2.9817l0.92291-5.0885 1.9439-11.536c0.61596-3.606 0.91246-5.9759 0.89784-7.1013 0.0146-0.4531-0.18583-0.77257-0.57838-0.96675-0.2088-0.0919-1.0315-0.31111-2.468-0.64728l-0.16495-0.26518 0.25891-1.5451 0.24221-0.17331c1.5076 0.35288 2.9316 0.63893 4.2992 0.8707 3.3346 0.56168 6.3476 1.021 9.0328 1.3844 1.3322 0.17748 2.6706 0.38002 4.0132 0.60761 3.7188 0.62849 6.5 1.5556 8.3312 2.7854 2.0066 1.353 3.4473 3.1905 4.3034 5.5061 0.90202 2.3803 1.0628 5.2555 0.49277 8.6214"/>
   <path d="m308.54 185.02c-1.2445 1.898-2.4743 4.1238-3.6916 6.6796l-0.31111 0.11066-14.194-6.9113c-2.3991-1.1359-4.0925-1.8897-5.1073-2.2718l-0.10857-0.30903 0.28188-0.58047 0.2255-0.19836c1.28-0.1921 1.9899-0.35705 2.136-0.48651 0.26518-0.20671 0.77674-1.092 1.5556-2.6643l2.2926-4.6375 5.0154-10.57c1.5764-3.3053 2.5098-5.4998 2.8063-6.5877 0.13781-0.43013 0.0292-0.79135-0.30902-1.0858-0.15452-0.14825-0.89367-0.58256-2.1882-1.2988l-0.0919-0.29858 0.68069-1.4178 0.27353-0.096c1.28 0.70992 3.2949 1.7226 6.0678 3.036 2.4597 1.1693 7.1473 3.3534 14.086 6.5459l0.15452 0.27353-1.3823 2.1862c-0.41552 0.70784-0.76839 1.3008-1.0524 1.7978l-1.0774 1.8667-0.29024 0.14407-1.1484-0.54706-0.0814-0.29858c0.88323-1.8938 1.2946-3.0214 1.2173-3.3763-0.0605-0.26936-0.68904-0.75586-1.8938-1.4637-1.211-0.70993-2.278-1.2946-3.2448-1.7498-1.1401-0.54288-2.324-1.044-3.5287-1.4992-0.83939 1.3927-1.8688 3.3784-3.0903 5.9613l-2.0567 4.318c0.99807 0.56168 1.8103 0.98972 2.4576 1.2946l2.5891 1.2069c1.1944 0.5575 1.9335 0.77466 2.1987 0.65564 0.31738-0.14825 0.89158-1.021 1.731-2.6226l0.31112-0.10857 1.2027 0.5742 0.10858 0.30694c-0.8018 1.5326-1.495 2.942-2.1152 4.2345-0.66399 1.4011-1.3656 2.9504-2.1068 4.6458l-0.29024 0.0877-1.3217-0.62432-0.0877-0.29649c0.75378-1.5994 1.1087-2.5996 1.0398-2.9942-0.0585-0.39881-0.60552-0.89993-1.6412-1.5054-0.75168-0.44684-1.5869-0.88532-2.4826-1.3134-0.96258-0.45519-1.8709-0.84774-2.7186-1.1672l-3.0318 6.3538c-0.86234 1.8208-1.6641 3.6039-2.4096 5.3453l2.6706 1.2695c3.8148 1.8145 6.2348 2.7687 7.2475 2.8606 0.17331 0.0125 0.31112-0.0146 0.41969-0.0814 0.22342-0.13363 0.53662-0.49277 0.96676-1.0691l1.6913-2.3657 0.32364-0.13363 1.1839 0.56585z"/>
   <path d="m360.51 194.89-0.34661 0.0188c-1.2048-0.85608-1.9252-1.3322-2.1172-1.4178-0.40925-0.16495-0.77883-0.10022-1.1192 0.20045-0.83938 0.74333-2.4179 2.5369-4.7189 5.3829l-5.8945 7.2788c-4.3389 5.3683-7.1118 8.9221-8.2769 10.663l-0.35287-0.0125c-1.0795-1.2507-1.9147-2.1924-2.4931-2.8188-0.10022-6.0448 0.0731-16.781 0.49277-32.214l-9.5088 11.726c-2.2968 2.8439-3.725 4.7607-4.2679 5.7504-0.22759 0.3842-0.22341 0.76004 0.0376 1.1275 0.13572 0.17957 0.73915 0.77674 1.8333 1.7769l0.0125 0.30903-0.98554 1.2173-0.2965 0.0313c-1.2298-1.115-2.4096-2.1298-3.5308-3.0443-1.2904-1.0419-2.6205-2.0567-3.9714-3.0402l-0.0501-0.31112 0.98346-1.2152 0.32573-0.0334c1.2048 0.85818 1.9147 1.328 2.1089 1.4178 0.41134 0.16496 0.77883 0.10232 1.1213-0.20045 0.8352-0.74333 2.4116-2.539 4.7106-5.3829l7.6839-9.4817c2.3177-2.8501 3.7438-4.7586 4.295-5.74 0.21925-0.39046 0.21089-0.76839-0.0355-1.1234-0.13155-0.18375-0.73916-0.77674-1.8333-1.7811l-0.0209-0.32364 0.98137-1.2194 0.30694-0.0146c1.0085 0.93335 1.992 1.7936 2.9629 2.5745 1.518 1.2298 2.8084 2.2175 3.8712 2.9587-0.59718 9.0202-0.81642 19.032-0.65773 30.028l8.492-10.488c2.3177-2.846 3.7334-4.7607 4.2783-5.7483 0.22759-0.38419 0.21715-0.75794-0.0459-1.1275-0.1211-0.18166-0.73916-0.77466-1.8145-1.7769l-0.0292-0.31112 0.99599-1.2173 0.29023-0.0313c1.2131 1.0983 2.3845 2.111 3.51 3.0297 1.4595 1.1672 2.7854 2.1882 4.0027 3.0568l0.0543 0.30694z"/>
  </g>
  <path d="m337.71 684.07-8.1975-6.1993-8.0744-4.7565-6.619-3.725-5.3829-2.278-5.0927-0.41969-3.8002-0.2088-2.0755 1.4574 0.83103 5.3871-6.6294 2.8919-8.279-1.0315-6.4144-4.3493-10.553-5.1762-16.554-8.4899-4.3452 1.0398-2.6998-0.82476-3.9255 2.2738h-5.1741l-46.565 21.728-9.7322-4.1384-1.6558-2.8919-4.9653-0.6285-6.4165 2.278-10.768 4.1364-11.169 4.554-5.3411 3.5183-0.34035 0.26309c28.265 27.142 61.803 42.89 97.742 42.89 37.845 0 73.03-17.46 102.2-47.3" fill="#2f393f"/>
  <path d="m255.67 621.3c0.17122 10.434-0.82477 20.199-4.8003 28.984-0.332 1.9878-0.82477 4.295-2.1528 5.6314-0.16077-1.3363 0.6619-4.8004-2.1569-4.8004l-12.58 3.464c-2.6434-5.6168-0.15451-12.42-0.32991-18.535 2.3219-19.21 9.2687-36.269 9.9306-56.134-6.9468-8.4439 3.8148-16.059 0.82894-25.994 0-3.4828-6.1221-6.9552-0.49068-9.4441-1.1609-6.1262 2.1506-11.261 2.1506-17.387 0.33199-11.096 2.6476-21.849 4.8004-31.955 3.6415 20.199 7.7799 42.723 2.9775 63.582-0.3299 5.4643 4.4788 10.265 0.8373 15.572-9.9452 14.069 0.65355 31.289 0.98554 47.016m99.344-263.42c-8.6005-2.1548-18.038-2.324-25.173-8.2852-6.951-17.711-14.723-35.271-24.989-51.827-5.1323-4.4642-3.487-11.588-9.9369-15.562-3.3095-3.9714-9.442-3.3095-13.75-2.1527-9.2624 2.3156-5.4602 14.405-9.9222 20.694-3.487 0.33826-5.3077-3.4724-8.2852-4.6416-1.1609-2.3094 0.16913-4.6208 2.1527-6.1116-2.1527-15.733 2.4847-31.132-2.1527-45.711l7.7904-8.2748c7.7737-6.6253 0-15.564 0-23.346-1.8354-5.1365-7.1285-5.6293-12.098-5.1365l-4.2971-3.9672c-8.2832-3.8106-10.597 8.2748-19.043 3.9672-2.3156-1.1588-4.4704-3.6394-7.283-2.1506-2.9796 4.8024-8.9409 0.9918-11.762 6.4582-11.758 1.6537-2.1548 13.248-8.1098 18.542 0.49695 6.4561-2.9775 11.098-1.8228 17.725-1.6558 2.8167-3.9756 1.8187-6.4561 1.8187-2.1527 0.32782-4.9716 2.1465-3.8064 5.1261-0.33617 1.992-2.656 1.328-3.9777 2.1548-1.3238 2.1548-0.98972 5.6293 0 7.7904 0.33199 0.82685 1.1568 1.6537 2.1569 1.3175 1.3196 1.4929 2.1507 2.99 1.8208 5.1365 2.3156 5.1282 8.6068 4.4704 13.407 6.1262 4.6333 0 4.8004-7.4542 9.442-6.1262 0.98763 4.4704 3.3095 8.4439 2.9754 13.409 3.8085 20.034-19.041 19.379-27.979 31.466-8.4439-17.723-15.566-36.104-23.016-54.313-1.1568-1.4908-2.6476-2.4889-4.3034-3.1446-1.8187 3.1446 0 6.619 0 9.9285 7.2893 17.552 14.24 35.104 19.865 53.155-2.1465 3.1466-4.7983 6.1262-5.6251 9.939-4.1426 8.1098 1.3238 17.047-2.9838 25.173 5.9634 4.1322-4.3055 9.4274 0.49695 14.558-0.49695 1.994 0 4.1489-1.3238 5.6356 0.15868 12.417-7.283 21.525-5.1365 34.609 4.8045 5.788 14.075 2.6434 19.381 8.1098 3.1425 0.99807 7.116-0.16495 9.4336 2.6518-0.82686 5.6293-0.9939 12.255-2.1465 17.218-1.163 3.4745-3.3199 7.947-0.83312 11.254 0.49277 0.99807 1.4888 2.1569 0.49277 3.1529-1.4908 3.8085-1.4908 9.2708 1.66 12.415-4.3076 8.2832-2.3198 19.375-3.4765 28.988-0.16704 23.663 11.254 43.046 9.5986 66.879 1.1588 3.3262 4.9653 5.6439 1.6558 9.1079-3.6415 21.862 1.8228 44.878-1.3217 66.568l-5.1344 12.417c-7.283 5.9675-15.403 10.927-21.191 17.723-2.9817 1.1526-5.4664 6.2912-9.1079 3.4703-10.267 3.8106-19.876 9.609-30.136 13.411 0.49695 0.67234 0 1.827 0.32991 1.827l1.3259-1.3342c2.1506-0.31112 4.9653 0 5.2952 2.4868 1.6558 1.0043 2.9859 1.4971 4.6417 0 0-0.33199 0.15869-0.98345-0.33408-1.1526-0.82895-1.4908-0.82895-3.9798 1.1588-4.3076 2.6518 0.8352 3.3116 3.1529 3.4766 5.4602h0.9918c0.332-1.9774-2.6455-4.7941-0.9918-6.7819 1.8208-1.3217 3.9756 0.33826 4.3076 2.1569 0.49277-1.1735-0.66399-1.6642-0.83312-2.658 0.66817-1.4867 1.992-3.6394 3.9777-2.1569 2.4868 1.5034 2.1527 4.1531 3.4765 6.1304 0.83103 0.32991 1.3238-0.65981 2.1569-0.98345 2.3177 3.1404 3.6415-4.1489 6.454-0.332-1.4888-1.6642-1.4888-4.9736-4.3076-4.815-1.6558-1.3113-0.82685-3.6331 0.82894-4.8003-0.16495 3.155 3.4786 1.8249 3.8106 3.9798 4.3076 1.4908 7.7862 4.1343 12.587 4.3076 15.896-6.4624 32.281-12.756 46.688-22.016 0.99808 1.8187 0 5.1261-0.9918 7.283l3.4765-4.6396 1.8249 0.8185 0.33199-2.6434c0.82477-1.6579 2.8063-3.3074 4.295-2.6434 1.8207 3.4724-1.8208 6.6232-1.1588 9.6007l2.4889-1.8228c-1.4908-1.1547-0.49277-3.3095-0.82476-5.1344 0.33199-2.8167 3.3116-2.6434 5.6251-2.6434 10.434 7.116 23.016 8.9346 32.784 17.706 5.1344 0.33617 11.421 1.827 16.065-1.6474 0.33199-1.9899 2.6434-4.3076 0.82476-6.1262 0-1.1526 1.4804-1.1526 2.1569-1.6642h-0.83103c-3.8148-14.067-25.501-11.578-21.699-28.969 1.4867-16.735 10.933-30.136 11.758-47.03-1.9836-10.757-1.6537-21.352-1.3175-32.448 1.4867-3.4786 0.99389-6.6274 0.49277-10.26 0.65981-1.3363 0-4.1531 2.4889-3.487 6.4582-29.806 11.081-58.943 7.7716-91.236-2.6476-3.6478-6.951-7.6212-5.1282-12.09 9.9285 8.7801 16.065 27.99 33.279 23.851 5.7963-3.3199 7.1285-9.2729 8.6152-14.743 1.9857-22.519 0.15869-45.203-1.6621-67.881 4.3097-7.9553 11.588-14.409 20.206-17.554 0.33617-2.6539 1.9878-5.9634-1.66-6.9531" fill="#231f20"/>
  <g fill="#b99a4a">
   <path d="m252.57 206.17c-1.3322 2.1548-2.1569 5.6293-1.1609 7.7862 3.3116-1.66 8.2727-2.1569 11.584-1.3259 0.3299 1.9857-1.9836 1.4908-2.9796 2.1486-0.66608 2.6539 0.82477 4.3076 2.1548 6.1283 3.4724 1.1588 1.4867-3.6415 4.3076-3.4744 2.1528 2.9775-3.9756 7.45 1.6474 8.6089h2.6622c0.98554 0.98972 0 2.1527-0.5053 2.9775-1.4908 1.6579-2.8188-1.1547-4.6396-0.82477-2.3177 0.99181-4.1384 2.8167-4.8024 4.8004 1.1568 1.328 3.3095 0.66399 2.9775 2.9817-0.49277 1.3259-1.9836 0.66399-2.9775 0.82059-1.6495-1.4846-1.6495-4.9632-4.2992-5.1261-1.4992 0.99389-0.9918 3.4786-0.50112 4.7982 0.99598 2.6518 6.7923-0.32781 4.8004 3.8148-3.4682 0.65563-8.7738 1.1568-9.9306-2.9817-3.8064-5.3036 4.6396-16.395-5.6272-15.071-3.6415-1.4908-9.6049 0-7.7862-6.4541 0.16913-0.99807 0-1.6558-0.82477-2.3219-2.9838 1.9878-1.3217 4.9736-2.9838 7.7799-0.99181 0.16913-1.6558 0-2.1465-0.82476-0.49903-1.8228 0.98972-3.1446-1.3301-3.8106-3.4703-2.1486-6.7881 2.1569-10.432 0.83312 0.83103 3.3074-6.9531 5.6272-1.6537 8.2748 3.4745 0 7.6171-2.3156 10.762 0.33408 2.3219 0.66399 0.83312 3.8064 1.3238 5.6293-0.65564 2.8146-4.1343-0.16496-4.3013 2.6518 5.1323 9.1058-9.7698 3.8002-4.3097 12.415 1.1588 2.6539 1.4908 5.6293 0 8.2748-3.1446 3.9798-5.7901-4.3013-7.7758 0.83312-0.99807 5.6272 9.5986 3.4744 4.6312 9.1079-2.1528 0.16496-5.2973-3.3137-6.4541 0.49278 0.49904 2.6539 4.3013 1.4908 3.9756 4.3076-2.9838 4.1447-10.271-3.4807-9.607 4.3076-1.1547-5.7963-9.277 0.65564-9.4399-5.6335-0.82268-3.1446-6.7881-6.619-2.9775-10.434 1.6537-0.9918 4.3013 0.5053 5.6293-1.6558v-3.4724c2.4806-0.99807 7.7799 0.49277 9.442-2.9817-2.4847-6.9614 6.6232-10.436 2.1465-16.56-1.1547-4.8024 7.9532-7.7841 1.3301-11.591-0.99807-5.6293 7.116-2.9775 5.955-8.6089 1.8228-2.1548 3.3137-0.99181 5.6314-1.3259 2.324-2.3198 3.9777-6.1262 7.7799-4.3076 3.6498 1.4908 5.3056 6.2954 9.9369 3.8127 2.8126-2.8167 6.2849-7.6171 10.768-5.1344"/>
   <path d="m245.26 232.98c0.33199 5.9634 2.4889 11.256 6.1283 15.89 4.6291-0.49069 8.4439 2.491 11.092 5.6356v1.8187c-4.6396-1.3259-9.1079-5.7922-14.576-6.454-3.8023-2.1486-0.65982-7.118-3.4786-9.6007-3.3053 1.3196-1.6516 5.291-3.9651 7.4521l-8.943 5.9571c0.16704-7.118 2.4785-15.065 5.1323-22.022 1.4888-4.8045 7.7758-2.3219 8.611 1.3238"/>
   <path d="m256.03 257.66c10.102 4.3076 0.6619 13.418 4.8003 20.199-0.15868 1.9899-0.98554 4.9716-3.4703 3.4786-1.9941-1.6537-5.3056-2.1527-5.9592-5.1344-0.6619-2.4826-0.8352-5.9613 1.1588-7.7799 1.9794 0.16287 3.8023-0.3299 5.2931-1.328l-2.6497-3.9651c0.82685-1.4971 3.3116-0.34244 2.9817-2.4889-2.9817 0.82686-9.11-0.66398-9.9306 4.3076l0.49068 10.764c-0.49068 1.1547-1.6516 0.82059-2.6476 0.82059-1.3301-0.99181-2.1507-2.8126-3.8044-2.9754-0.17121 0.99181-1.6537 1.9836-0.49903 2.9754l1.3217 2.1548c-0.99389 0.16913-2.3156 0.49695-2.6434 1.8228-2.8188 0.66399-6.2954 0.16495-8.6172 2.1548-2.3093-4.3076-2.1444-9.7698-2.1444-15.071 3.3116-0.49903 9.2645 1.1568 10.762-3.1446-0.332-0.98972-0.66608-2.6476-2.1569-2.9817-2.9775 0.49903-5.4622-0.99181-7.2851 1.3196 1.6558 1.827 4.3076-2.4806 4.8003 0.83521-1.3196 1.8187-3.4765 1.8187-5.6293 1.8187-0.65563-1.8187-2.9796-3.8085-0.82476-5.6272 5.1344-3.1466 9.1079-8.9367 15.896-7.7883 3.3116 2.6518 6.7819 4.6416 10.757 5.6335"/>
   <path d="m171.4 268.44c18.21 47.024 36.091 94.382 53.977 141.57-0.9939 0.82476-2.1548 0.99598-3.4766 0.99598-8.4439-17.717-14.073-36.599-20.696-54.977l-29.804-81.627c-1.4888-4.3097-4.1405-8.6089-4.3076-12.919 3.3116 0.33617 2.1506 4.8004 4.3076 6.9552"/>
   <path d="m234.84 290.8c1.4908-2.1548-2.3177-3.4724-1.6537-5.9613 6.1242 0.33617 13.069 5.1407 18.537 0.82477 3.6415-0.16287 7.4563 0.1733 9.9452 1.3301-1.662 2.1444-4.3076-0.82894-5.1365 2.6539 0.32364 2.8084-0.6619 5.1323-2.9859 6.7819-4.8004-0.15869-10.924 2.8167-13.407-2.1548-1.4867 0.33199-1.9878 2.656-3.9756 1.8166-1.1568-3.8002-5.4643-4.3013-7.2851-7.4459l-0.82268 1.0022 13.739 15.061c5.6293 1.4908 10.92 0.99807 16.882 0.49277 1.1693 4.8004-4.4704 5.6439-7.2746 8.1224-5.7963 5.6272-10.764-1.6579-16.063-2.988-2.8167-4.4642-10.102-4.4642-9.4399-10.755l0.332-11.762h1.3217c0.83312-2.1548-3.6394-4.3013-0.82268-6.9531 1.9836 3.3158 4.3013 7.45 8.1098 9.9348"/>
   <path d="m294.94 284.32c-17.059 2.9817-11.927 24.501-15.9 36.759-0.66607 44.377 7.6212 86.266 29.813 121.86l9.4399 11.261c1.3134 1.1547-2.658 2.4826 0 3.8085 0.98554 1.6537 3.8023 0 4.295 2.1465-1.1547 1.4908-2.1569 0.99807-3.4745 0-11.756-1.8187-16.57-14.737-22.031-23.342-3.629-10.764-9.9285-20.534-12.574-31.957-9.7719-16.556-7.2934-38.246-12.088-56.955-2.3156-20.54 1.8228-40.581 6.619-59.287 2.8209-2.4806 5.6376-4.7983 8.9471-5.955 2.8042-0.6619 4.6291 1.1568 6.9531 1.6558"/>
   <path d="m293.61 291.27v0.83521h-2.1569c-0.49277-1.495 1.6642-1.495 2.1569-0.83521"/>
   <path d="m297.58 296.07c-0.65981 1.0002-1.6642 0.83938-2.6476 0.83938-1.66-0.6619-0.50113-2.324 0.49277-2.9859z"/>
   <path d="m300.05 299.57c0.32782 1.1547-0.33199 1.3175-1.163 1.6558-0.9939 0.16286-1.6579-0.16496-2.1528-0.83521-0.32781-1.9732 2.6455-2.3114 3.3158-0.82059"/>
   <path d="m293.61 304.68c3.3095 2.8167 2.8167 8.4439 6.4603 11.259 1.6454 0.33826 4.293 0.49277 3.9693 2.9817 0.32364 1.495-0.50112 2.6539-1.8145 2.9817-4.9778-6.2912-15.572-11.597-12.108-21.198 2.326 0.16495 1.0043 3.6478 3.4932 3.9756"/>
   <path d="m302.21 306.01c-0.18166 0.82477-1.1735 0.16495-1.6621 0.33199-0.49277-0.82894-1.1651-1.6579-0.82685-2.9859 1.3154-1.8187 4.1343 0.83521 2.4889 2.6539"/>
   <path d="m286.33 306.01c-0.65981 0.49695-0.65981 0.98972-0.82477 1.6537h-0.98971v-4.7983c1.4825 0 1.1547 2.1548 1.8145 3.1446"/>
   <path d="m245.26 321.93c5.9571 0.16495 8.9325-6.4582 14.24-7.7758 4.627-2.4889 4.4663-9.4462 10.425-10.275 3.6415 14.906-12.246 23.513-17.715 34.945-1.992 0.82686-1.8187-1.4992-2.6539-2.1569-8.9304-6.786-22.839-1.8187-30.126-12.584-3.8064-2.8167-4.4746-10.44-9.6049-10.267-2.6539 4.1384 2.9754 7.1201 3.4765 11.259 3.6436 10.595 6.1283 25.501 1.3238 35.768 2.3198-1.3301 3.1487-4.9736 4.8045-7.2851 3.1446-5.9529 1.1568-14.24 1.6537-21.198 7.7799 8.4439 23.016 3.6478 27.647 15.071 5.7942 19.702 1.8187 41.723 1.66 62.26l0.99598 0.82477c4.6291-4.9653 4.1364-12.749 4.6291-19.87 1.6621-16.89-0.66608-34.273-2.9775-50.505 4.6396-2.4847 6.7923-10.927 12.578-9.1079 7.1264 22.851 7.9491 50.668 5.9717 75.185-8.1245 3.3074-17.397 16.552-25.505 7.7758 1.1588-5.3056-1.1568-8.945-5.6251-11.261-3.4828-0.67025-7.2872 0.82059-10.271 2.9712-8.9409-25.163-21.362-49.175-29.804-74.672 3.4786-1.4908 7.7862 1.6642 9.442-3.4744 0.82894-2.9754-1.0002-6.1221-3.8127-6.4541-3.4745 0-6.619 0.82477-8.6047 3.9693-1.1609-1.6474-1.66-4.6312-1.3259-6.6211 8.2769-5.4664 16.888-9.9348 25.495-14.574 6.7944 7.6212 13.248 16.564 23.682 18.051"/>
   <path d="m305.67 309.51c-0.15451 0.49277-0.15451 1.163-0.82059 1.6642-0.82894 0.16495-1.6579-0.17331-2.1506-0.83938-0.67652-1.9774 3.3095-4.2971 2.9712-0.82477"/>
   <path d="m290.62 311.63c7.7778 11.586 17.379 22.026 26.322 33.615v1.3217c-4.4621 1.3301-5.9655-4.6396-9.9285-6.1304-7.283-8.2748-23.194-13.572-19.375-27.649 0.33408-1.1568 1.8249-2.3156 2.9817-1.1568"/>
   <path d="m313.97 325.08c0 0.32782 0.15451 0.99389-0.5053 1.1568h-1.3175l-6.7923-12.908c0-1.1672 1.8187-1.66 2.4785-0.83521z"/>
   <path d="m305.36 324.58h-0.99807v-2.6539h0.99807z"/>
   <path d="m204.69 325.08c-0.49904 0.16495-0.66399 0.99389-1.3217 0.83103-0.83103-0.50321-0.99807-1.4971-0.50113-2.1486 1.3238-0.33199 1.3238 0.49277 1.8228 1.3175"/>
   <path d="m187.83 326.73c3.1404 6.1242 3.8023 13.075 6.4561 19.371-3.9798-1.8249-9.277-1.3322-12.424-3.8106 0.9918-5.6314 2.6455-11.756 5.9675-15.56"/>
   <path d="m284.17 328.38c-0.15451 0.50112 0.17122 0.66608 0.33617 1.0022-0.49068 0.32782-0.82894 0.98972-1.6579 0.82059v-1.8228z"/>
   <path d="m315.62 352.55c-0.49277 1.1735 0 2.9817-1.6495 3.1508-9.2854-5.3056-25.505-2.1527-27.662-16.061 0-3.9798 1.1588-7.4521 2.6497-10.762 9.4399 7.283 18.216 15.735 26.662 23.672"/>
   <path d="m284.17 336.63c-0.99807-0.49695-0.49277-1.3259 0-2.1548z"/>
   <path d="m326.55 347.4c-1.4846 9.774-3.3095 19.702 1.1588 28.483 0.99807 0.82477 2.4889 0.82477 2.6622 2.1507v2.1527c-5.1344 0.49277-3.8211-9.774-10.44-6.7881-1.1526-9.1079-3.6415-21.525 2.1569-29.808 2.3114 0.16287 2.4826 2.6476 4.4621 3.8106"/>
   <path d="m199.07 357.86c-1.4908 6.4561-6.6253-1.3342-10.764 0-2.1548-1.3342-6.4582 1.1547-7.448-2.1548 0.82477-2.6455 0.15869-5.8005 2.1486-7.7778 6.1304 1.6454 16.063 0.82476 16.063 9.9327"/>
   <path d="m285.82 351.37c-0.16704 0.49695-0.82894 0.32782-1.3217 0.32782-0.67443-0.66608-0.49069-1.9774 0.49277-2.4847 0.82894 0.50739 0.98972 1.1547 0.82894 2.1569"/>
   <path d="m313.14 358.69c2.1527 1.3363 3.1508 4.3076 2.1527 6.9531-9.1079-2.4806-21.352 5.6335-26.328-5.2889 0.33408-2.9796-1.1526-6.7923 1.1547-8.943 7.6233 2.6518 15.572 4.4621 23.02 7.2788"/>
   <path d="m332.52 365.96c-1.1526 0.49486-2.1381 2.8167-3.4703 1.8208-1.9774-4.6375 0.16078-9.4378 1.3322-13.908 6.6232 2.3156 0.16496 8.1119 2.1381 12.088"/>
   <path d="m354.02 364.31c-2.3156 0.49695-2.1423-2.4847-4.2992-2.6539-1.4992 3.4786-8.1224 0-6.4582 5.6356l-0.82268 0.82477c-1.3342-0.6619-0.84147-3.1487-2.1548-4.3034-1.1526 0.9939 1.9836 6.1262-2.1569 5.6251 0.49278-1.8187-0.65981-4.8003-2.9817-5.1282l0.83103-6.951 18.043 1.8228z"/>
   <path d="m199.07 368.59c-6.1242-0.15451-11.593-1.6454-18.212-0.49277-1.1651-2.9796 0.98972-6.619 2.6476-9.4399 5.6314 2.324 14.403 2.324 15.564 9.9327"/>
   <path d="m285.51 366.94h-0.98972c0.16913-0.83521 0-1.9961 0.98972-1.8291z"/>
   <path d="m318.29 372.4c-4.485 5.2868-12.43 3.9714-17.723 8.2706-2.8209 0-5.7984 2.8167-8.2873 0-1.1526-3.8085-1.1526-7.7758 0-11.58 8.1224-0.17331 20.863-4.3118 26.01 3.3095"/>
   <path d="m203.87 373.43c1.9857 3.6373-4.8003 1.4908-1.8228 5.1282 0.99807 1.66 3.8085 3.8148 1.8228 5.6356-7.448-0.33826-16.393-7.1264-23.843-0.83103h-0.82686c-1.3259-4.9674 1.9836-9.275 4.8004-12.584 6.9552 1.1526 14.9-2.6497 19.87 2.6518"/>
   <path d="m320.92 379.05c-1.1672 3.8064-5.3077 6.784-7.4626 9.9327-4.4725 3.6436-8.6005 12.417-14.566 10.764-5.1261-2.9817-4.6354-9.1079-3.9735-13.411 6.9552-4.6396 15.065-6.619 22.509-9.9327 1.3363 0.16286 2.8188 1.1609 3.4932 2.6476"/>
   <path d="m323.09 382.86c-0.83729 11.428-8.4418 21.198-13.088 31.623-1.992 2.4826-5.4643 0.50112-7.7716 0-2.3344-2.1507-1.8291-5.4706-2.4889-8.2685 1.9794-3.6478 6.4457-5.3015 9.4399-8.6152l12.576-14.739z"/>
   <path d="m201.71 389.31c-0.83312 4.9674-6.7965 6.619-10.931 8.279-5.2994 2.4785-9.774 4.6396-14.24 9.442 0-6.6336 3.3095-12.916 3.9735-19.874 1.1588-2.1507 3.9693-0.66817 5.6251-1.6579 5.7963-0.49277 11.098 0.49695 15.572 3.8106"/>
   <path d="m291.13 385.49c-0.16078 0.32782 0.16704 0.49695 0.33199 0.83103l-0.82685 0.82685c-1.1547-0.33617-1.0022-2.1506 0.49486-1.6579"/>
   <path d="m326.55 390.13c-5.2868 14.409-10.26 28.819-16.059 42.888-2.1569-0.49277-4.1343-3.4765-4.8003-5.6168-1.8187-5.4706 3.9798-7.6275 5.2931-11.77 5.7984-8.9346 9.1079-18.874 13.754-28.474 1.4846-0.17122 0.99181 2.1527 1.8124 2.9733"/>
   <path d="m199.07 399.72c-3.8106 4.6354-4.9695 10.265-7.2872 15.564-1.4908-2.1465-4.9653-0.83103-5.6314-3.9672 0.49694-4.9778 5.2973-7.7946 8.9409-10.762 1.328-0.33409 2.9838-1.1735 3.9777-0.83521"/>
   <path d="m296.24 404.56c-0.16495 0.49695 0.32782 1.3259-0.49277 1.6642-0.49068 0.15451-0.82894-0.66608-1.3301-0.83938-0.32781-0.98972 1.8228-2.8084 1.8228-0.82477"/>
   <path d="m205.52 406.21-3.4828 13.401c-1.9815-1.3113-5.4622-1.3113-5.955-4.3013-0.49904-4.6375 3.4765-7.947 6.454-10.764 1.4888-0.82476 1.9857 0.99807 2.9838 1.6642"/>
   <path d="m240.15 410.02c1.9836 10.595-8.7759 2.4889-12.916 6.1304-3.8085 2.9775-7.4542 5.7942-11.756 7.2809-2.1527-1.3238-1.1609-4.4684-0.82894-6.4603 7.1201-3.3095 15.564-3.8002 21.525-9.9285 2.3198-0.49695 3.3116 1.3175 3.9756 2.9775"/>
   <path d="m211.96 410.49c1.6558 3.4765-0.83103 3.6373-1.3217 6.9489-1.163 1.3342-2.4847 2.656-4.3076 2.4868-0.77465-1.756 1.8228-9.5046 1.8228-11.092 1.4846 0 2.9754 0.15661 3.8064 1.6558"/>
   <path d="m276.39 410.49c-1.9794 2.4847 0 5.4643 0 8.2832-6.4582 4.7962-13.904 6.7881-20.698 10.757-4.8004 1.3217-3.3137-4.2992-4.8004-6.454v-2.1527c9.5986-0.99807 15.727-10.269 25.499-10.434"/>
   <path d="m324.74 412.65c-0.49277 5.7984-0.49277 10.106-1.6495 15.57 4.293 3.9777-4.8004 4.3055-0.50739 8.279 0.50739 3.6478-3.4724 7.2851-0.82476 9.939l-0.82059 0.82476c-1.9962-2.6497-7.2934-5.1386-5.3077-9.6007 4.1405-8.1182 4.3055-18.057 8.279-26.326z"/>
   <path d="m244.43 418.79c-0.16287 5.955-8.6068 0.32782-8.6068 6.4603 2.9859 0.98345 9.1079-4.3076 9.9327 1.3175-2.6476 2.1507-8.9346 0.50113-8.6026 4.6396 3.3116 2.4806 6.2933-2.8167 10.263-0.33617v4.3076c-3.1487 1.6558-8.2769-3.6436-9.4378 1.3259 1.6537 2.4764 5.1302 0.50113 7.2872 1.6537 0.49068 1.994-0.99808 3.4807-2.6518 4.3097-3.8044 0.66399-6.7902-0.82894-9.4357-2.9817-1.4888-5.7984-2.4868-12.417-1.6558-18.544 3.9777-1.4908 8.778-0.83103 12.908-2.1527"/>
   <path d="m302.73 419.61c0.1566 0.33408-0.18166 0.65981-0.49277 0.83103h-1.1714v-1.6516c0.6619-0.33617 1.1714 0.32782 1.6642 0.82059"/>
   <path d="m282.01 422.09c-1.3217 1.8145-5.1323 4.9695-1.8228 7.448l0.50113 0.3299c-7.9449 4.4809-15.723 9.609-24.672 11.762-2.8063-1.1588-6.2891-2.4806-4.3076-6.4603 0.33408-3.8064 3.8169 0.16287 5.6397-1.8187 7.2851-4.6396 15.063-7.9512 22.507-12.09 0.99807-0.32782 1.3259 0.66399 2.1548 0.82894"/>
   <path d="m227.22 426.06c-0.6619 4.1343 1.8208 8.1098 0.32991 11.597-2.8063 0.15869-2.9754-2.9859-3.8044-4.6437-0.17121-3.9714-2.1569-8.7718 1.6537-10.924 1.8208 0 1.8208 2.4806 1.8208 3.9714"/>
   <path d="m329.53 433.84c-1.4867-2.6434-1.1547-6.6274 0.32782-9.1079 0.50947 2.8167 1.0022 6.9573-0.32782 9.1079"/>
   <path d="m213.81 427.39c-1.3217 2.7979-0.99807 6.2808-2.1548 9.0996-0.4364-0.47398-6.9594-1.021-7.4521-2.6539 0.99807-2.4806 0-5.7901 2.1527-7.782 2.4806 0.49904 5.7984-1.1526 7.4542 1.3363"/>
   <path d="m287.99 435.18c-0.6619 0.82477-1.5034 2.6497 0 3.4724 0.65146-0.16287 0.98345 0.50739 1.3175 0.8352-13.084 2.9817-23.676 11.916-35.761 17.218-1.8249 0.16495-3.1425-0.16704-4.2992-1.3259v-7.2893c10.267 0.99807 18.377-8.6026 27.643-12.91 3.3095-0.99807 8.7759-3.9693 11.1 0"/>
   <path d="m329.85 440.33c-0.32782-0.16495-0.49068 0.16495-0.82059 0.49277-1.4846-0.83103-0.65981-2.6497 0-3.4744h0.82059z"/>
   <path d="m229.38 444.61c1.163 1.495 1.9857 3.1404 1.6537 5.1323l-0.82894 0.99389c-9.6007-1.4846-20.362-0.33199-28.975-4.3034 0.16704-1.9899 1.1588-3.9735 2.9796-4.8045 8.6089 0.32781 17.218 0.65772 25.171 2.9817"/>
   <path d="m240.93 446.77c0.16704 3.1404 1.6579 6.2912-1.3238 8.6026-4.8004 0.82894-4.3013-4.3097-5.9634-6.784-0.65564-2.1506 0.99807-3.155 2.1548-4.3076 1.9899-0.16913 3.9756 0.98972 5.1323 2.4889"/>
   <path d="m288.97 448.58c1.6621 2.1506-1.1526 4.1384-2.6497 5.1282-12.572 4.6354-24.501 11.1-36.252 17.719-14.898-7.1118-30.796-11.424-48.346-11.758-1.9899-1.9815-1.8228-5.9613-0.49904-8.1078 9.7636-0.50738 20.195 0.32782 29.309 2.6434 3.6394 5.7984 10.592 7.7778 16.886 5.4643 2.4889-1.8187 5.2931 1.9836 8.2748 0 9.9327-5.2994 18.882-13.077 30.136-15.399z"/>
   <path d="m294.12 465.8c6.2954 12.752 2.8167 29.134 0.83103 43.216l-1.3238 1.3342c-2.3198-3.6457 2.1506-7.7946 0-11.263l-2.4889 2.9754c-2.1569 9.9348-4.1384 19.876-6.9552 29.303 1.6579 4.6458 7.2872 8.6152 5.6335 13.42-5.1282-4.6458-6.2995-11.925-10.768-17.222l5.9634-63.428c2.324-3.9693 6.6294-0.15451 9.1079 1.6642"/>
   <path d="m276.86 466.62c2.1527 20.204-0.66399 40.898-0.98345 60.438-3.8127 5.1323-9.1058 7.6129-14.238 11.766-1.6621-6.7986-0.17331-14.906-1.3301-22.033-0.33199-13.073-9.9327-29.8 2.1548-40.572 3.3095-4.625 7.9386-9.4253 13.084-11.248z"/>
   <path d="m219.43 467.96c1.8166 9.5986 3.6373 20.195 1.6537 30.305 1.3259 11.578-1.328 24.835 3.8023 34.928l1.8312-1.8249c-3.4849-17.704-0.99807-35.592-0.50112-53.967 1.3238-1.8333 0.6619-4.483 2.6476-5.9696 5.6314 1.8145 11.263 5.6356 14.731 11.261 2.6476 17.723-4.1322 34.772-9.0996 51l-2.1548 2.1569c1.3238 4.1343 6.4624 5.7859 7.2851 10.263-4.4642-1.66-6.6169-6.7881-10.263-9.4378-7.1201 0.16078-10.43 6.2912-17.387 6.452-2.4826-1.8208-0.16704-5.6293-2.1507-7.782-3.9777-21.352-12.417-43.543-5.9634-66.56 4.1384-2.6476 10.931-2.9817 15.568-0.82477"/>
   <path d="m285.82 553.06c-1.6579 3.4724-3.4765-1.3259-5.6335 0.83103-1.9794-1.9878 0.50112-7.2955-2.1569-9.1079h-1.1526c-1.8187 2.4868-0.332 6.2912-1.3134 9.1079-1.6641 0.65981-4.1531-1.4971-5.6397 0.49068 2.1569 1.1526 4.483 3.9693 4.6416 6.7923 0 2.4847-1.8228 5.2973 0 7.45 4.1343-3.3199 6.7923-7.2893 11.747-8.6068-1.6454 3.9735-5.1323 9.9327-10.421 9.9327-0.99389 1.6454-1.3259 3.9693-2.99 5.1386-5.1302 0-6.2912-5.1386-9.9306-8.2894-3.8545-5.0968-3.7062-15.435-2.1548-21.525 3.6415-6.4499 10.772-7.448 14.748-13.401 3.464 6.6169 8.7697 13.242 10.256 21.187"/>
   <path d="m226.23 540.13c3.3596 10.455 22.845 18.03 9.1079 29.309-3.3158 0-6.1304 4.1468-9.1079 2.6601 0.6619-3.9756 4.9695-6.1262 8.279-6.9573 1.1568 0.49486 1.1568-0.83312 1.6537-1.3259-0.98972-2.9817-5.2973-3.1487-8.1098-4.3076-1.9878 0.82059-2.8167-1.163-2.6539-2.6434-0.49904-1.8291 1.1588-4.8045-1.3238-5.6293-2.9775 1.8187 0.66816 6.7819-2.9775 7.7799-0.49695 2.4806 2.4785 2.3114 2.6476 4.4684-0.16913 3.3095 0.32991 6.7923-0.50112 9.9327-4.1322-2.3198-8.2769-6.4561-10.753-10.935-0.33409-4.295-1.4992-8.7718-0.83103-12.91 5.6314-1.3217 8.7759-8.5984 14.57-9.442"/>
   <path d="m218.45 604.4c0.50112 0.49277 0.99807 1.163 1.8228 0.99807 3.3095-8.7718 3.3095-18.709 9.9327-25.994 8.7759 7.1118 1.495 18.207 1.3301 27.643-1.3301 12.591-4.4746 24.507-5.6335 37.098-2.4847 2.6497-6.454 2.4847-9.6049 1.8228-2.6476-0.8373-3.4766-3.8211-4.3034-6.1262 0.99389-23.354-3.8064-47.69-0.82894-70.383 15.069 6.4624 7.6171 23.348 7.2851 34.941"/>
   <path d="m274.23 579.4c0.33199 20.358-3.3137 40.234-6.9552 59.607-4.7982 1.4908-8.9367 5.7859-10.76 10.43 3.3137 1.8145 5.7838-3.3178 9.0996-3.9839 1.8228 0.51156 5.3015-0.98345 5.6376 1.3384-1.8228 2.8167-7.4626-2.1569-5.6376 2.9754 3.4828 4.1489 11.094-0.82059 15.9 2.658-4.8066 1.4908-7.7778 9.4295-13.747 6.4499l-2.6476 3.4807c-6.1283-1.9962 1.3322-9.9306-4.7982-11.256-2.6455 1.1547-1.4908 6.4436-5.1344 4.7983-1.8187-1.163-1.6579-4.3076-0.49068-5.6293 7.7799-18.057 5.1323-39.248 5.6251-59.617-1.9836-5.2931-1.4908-12.737 0-18.203 4.9716 2.4847 8.9952 8.1098 13.908 6.9531"/>
   <path d="m285 586.67c1.6579 17.431-5.6084 32.03-9.4274 47.523l-1.3301 6.4499c-1.4908-0.49277-3.3158-0.32782-4.3076-2.1548 1.8228-21.022 10.588-39.236 10.258-61.254 0.17539-1.66 1.4867-2.6622 2.6539-3.8148 1.9878 3.4766 1.495 8.7759 2.1527 13.251"/>
   <path d="m226.7 654.55c-2.5599 3.9902-5.339-1.495-9.4378-2.1381-1.3259-1.6641-2.9859-1.1714-4.4767 0-0.16495 0.49277-0.9918 0.65146-0.82476 1.3175 1.3238 0.9939 3.8106-0.49277 4.8003 1.3301-1.6558 4.1364-4.6312-0.8373-7.7778 0.82685-4.1426-2.3198-3.6457 3.9693-7.2851 2.9754-0.83103 0.82685-1.8228 1.3322-1.3322 2.6434 1.6579 1.4908 3.6436 2.326 5.9655 2.1527 2.3198-1.9794-1.1568-6.2912 3.4786-5.6168 2.1507 1.4825 4.9653 4.6312 2.6518 7.2809-1.8228 3.1404-3.9777-0.50739-6.1304-0.32782-3.9756 1.6433-7.947 0.82059-10.764-2.1569-0.66399 0-1.3217-1.1588-1.6558 0 0 1.9774 1.4867 1.3301 2.4847 2.9775 3.1466 0.99807 1.4888 4.4704 1.3259 6.4603-3.9777 5.2952-11.263 2.6455-16.888 1.6495-1.3301-0.49277-0.66608-1.9794-0.83103-2.9733 7.2872-9.4462 18.21-12.756 25.994-20.694 5.7963-2.326 11.762-0.83103 18.55-1.3238 1.3217 1.1526 2.6455 3.1362 2.1527 5.6168"/>
   <path d="m288.46 657.23c-0.33408 5.9529-9.11 4.959-8.6152 11.089-0.98345 0.99807-2.253 0.32991-3.0777-0.33199-1.3259-1.8228-1.7184-5.1323-0.39255-6.9552 3.1362-3.155 7.7779-4.4684 12.085-3.8023"/>
   <path d="m295.41 664.5c-0.6619 1.4908-0.33408 3.3241-2.1527 4.3076-3.9735-1.0336-4.8943 3.3429-9.1079 4.3076-3.3095-1.3301-0.99807-5.291 0-7.2893 2.8167-2.6476 9.2812-7.6171 11.261-1.3259"/>
  </g>
  <g fill="#231f20">
   <path d="m326.07 674.44c3.4724 0.98345 7.1201 4.293 8.6068 7.2893-1.8249-0.17331-4.6229-2.9963-5.6251-0.33617-0.16495 1.9857 1.9899 4.1384 0 5.9571-5.2889-1.328-6.1325 9.1079-10.755 2.6476 1.8061-1.3134-1.5034-2.4826-1.6621-3.9756-3.1508-1.3196-6.6253 0.50739-9.1079-1.6495-3.3158 2.8188-4.4684-3.4828-7.4459-1.66 1.9732-0.49068 3.6373-2.3156 4.295-4.4704-0.32364 1.4888 0.6619 2.6476 1.8187 3.1508 2.324 0.98345 2.324-1.6621 3.487-2.6601 0-0.64938-0.33409 1.5055 0.82059 1.6641 2.326-0.49068 3.8169-2.9754 4.3076-5.1323 0.99807-3.3095-0.99807-6.951-4.8004-7.2851-3.8148-0.49277-3.3074 3.9756-5.1282 5.955l-0.5053 3.155c-1.1547-3.4849 4.6354-7.7778 0-10.44v-2.1507c7.4605 2.8167 15.568 5.1407 21.694 9.941"/>
   <path d="m238.81 670.12 0.49277-3.4828 0.32991 2.6622z"/>
   <path d="m224.9 671.77c-12.248 7.9512-26.315 12.591-37.912 21.198 4.9653-5.2973 12.916-8.6068 19.872-12.91 3.4744-0.33617 4.9632-2.8167 8.1098-3.9839 2.8188-1.9732 6.6211-2.7979 9.9306-4.3034"/>
   <path d="m234.49 672.28c-11.923 6.9552-24.505 11.597-34.605 21.195h-1.3217c10.098-10.931 23.008-15.397 35.926-21.195"/>
   <path d="m268.61 674.91c-1.1672 2.8167-4.1489 2.9817-6.4603 3.8023-10.76 8.6152-22.354 12.923-33.776 21.53 3.3116-4.7941 10.267-7.6066 16.383-11.578 7.1264-5.9738 14.411-9.774 21.701-14.247 0.6619 0.16495 1.6474-0.32782 2.1527 0.49277"/>
  </g>
  <path d="m320.41 677.43c-1.8228 2.6476 0.66608 7.2788-4.293 6.4582 0-2.658-0.50321-6.7923 2.1548-8.9471 1.9732-0.49277 0.98555 1.827 2.1381 2.4889" fill="#2f393e"/>
  <path d="m234.84 678.26 3.4765-2.9775h0.9939z" fill="#231f20"/>
  <path d="m324.23 677.43c-0.84356 2.9754 1.3134 5.6209-1.1588 8.2644-0.83729 1.5034 0 3.6603-2.1506 4.6458-0.33826-4.8003-1.9961-10.425 3.3095-12.91" fill="#2f393e"/>
  <g fill="#231f20">
   <path d="m232.68 679.24c-2.4847 1.0002-4.3013 4.1384-7.2851 4.3097 2.6539-0.83729 4.6375-3.6436 7.2851-4.3097"/>
   <path d="m247.07 679.24c-6.1283 5.291-14.57 9.11-20.362 14.24-6.2933 4.6333-12.255 10.093-18.548 14.574h-0.83103c5.9634-5.4643 11.426-9.7677 17.548-14.574 7.2892-5.3056 14.247-9.7677 22.194-14.24"/>
   <path d="m284.49 682.23c-0.33617 0.99598-1.6579 1.4908-2.9817 1.3259-1.0022-0.16913 1.8145-1.3259 2.9817-1.3259"/>
   <path d="m266.96 683.56v-0.50739h1.1526z"/>
   <path d="m161.97 684.39 0.33408-0.16704 0.49695 1.3259-0.49695 0.15451z"/>
   <path d="m222.42 685.21 0.32573-0.82059h0.99807z"/>
   <path d="m265.11 684.39c-0.15869 0.82059-1.1568 1.495-1.66 2.1569h-1.3175c0.9939-0.6619 1.6474-2.324 2.9775-2.1569"/>
   <path d="m295.77 684.39c-0.17748 2.3156 2.4806 1.3134 3.4661 2.1569-1.9794 0.65981-2.8-1.1547-4.7962-1.6642 0.332-0.65981 0.83939-0.49277 1.3301-0.49277"/>
   <path d="m274.58 687.85 3.1487-2.6476h1.6454z"/>
   <path d="m219.43 687.34 0.32573-0.82059h0.83103z"/>
   <path d="m260 688.16 0.33199-0.82477h0.9939z"/>
   <path d="m287.63 688.16c1.4867 1.1735 3.4745 2.9817 5.6251 3.4828h2.9817c-0.49277 3.3199 4.3076 3.1362 6.4645 4.8003 3.4661-0.16913 5.788 2.3198 8.5964 3.4724-7.4438-0.15869-14.56-0.82477-22.35-3.4724 4.1531 0.99807 7.7904 1.8291 11.597 0.82477v-1.3175l-16.89-6.7881c1.8187 0.82059 2.1527-1.6621 3.9756-1.0022"/>
   <path d="m307.85 687.86h1.3363v0.33408h-1.3363z"/>
   <path d="m257.84 689.18c-2.3156 0.99389-3.9777 2.6455-6.452 3.8023 0.32155-0.15869 4.1364-2.9817 6.452-3.8023"/>
   <path d="m164.44 693.82c-0.65981 1.9878 1.66 2.3219 2.6497 2.6497-1.1588 0-10.098 2.1548-12.088-1.6662 2.8188-0.98345 6.6211 0 9.4378-0.98345"/>
   <path d="m180.87 696.97 3.9693-3.1404-0.82685 1.827z"/>
   <path d="m248.72 694.29c0.16704 0.67443-0.66816 0.83103-0.83103 1.3363h-0.82268c0.49277-0.5053 0.82268-1.3363 1.6537-1.3363"/>
   <path d="m307.01 704.24c0.15869 1.8187-1.9961 1.9961-2.9817 2.9817-3.8106-0.16495-8.7697-0.16495-12.094-2.9817-4.2992-0.15451-8.2727-1.1568-12.088-2.6434-2.8084 0.82477-5.2889-1.495-7.7737-2.4889 1.1526-0.32991 2.8167 0.66608 3.4828-0.99389 0-1.4908-1.8228-2.3177-3.155-2.4743h-2.4826v-1.3363c12.083 3.9839 25.34 5.9613 37.091 9.9369"/>
   <path d="m195.1 696.97h-0.82268l2.1507-2.1548c0.32782 0-0.49486 1.495-1.328 2.1548"/>
   <path d="m285.51 695.63-2.1548-0.5053h1.6579z"/>
   <path d="m174.39 695.98h-1.6579c0.33408-0.6619 1.3217-0.6619 1.6579 0"/>
   <path d="m191.76 701.25c2.9838 1.8228 5.9634 3.8106 8.1161-0.49277 1.3217 0.98554-4.8066 1.9836-2.1527 4.8003-6.6211 2.3198-13.086 2.6476-21.53 2.9817v-0.49277c4.9674-0.332 9.9348-1.8187 15.073-1.1714 0-1.6454 2.6476-0.98345 1.6558-3.1362l-1.163-0.8352-22.521 2.1569c5.9592-3.6457 13.743-1.9878 20.701-2.9817l-0.33408-0.33617 3.4786-4.295 0.32991 0.31946c-0.16496 0-1.9878 1.8333-1.6537 3.4828"/>
   <path d="m241.45 699.09 0.16704 0.17331-1.1568 1.3134-0.33199-0.32782z"/>
   <path d="m237.16 702.59 2.1465-1.8228c-0.99181 0.16287-0.65564 2.3156-2.1465 1.8228"/>
   <path d="m224.07 703.41 2.6539-2.1506-1.8312 2.1506z"/>
   <path d="m219.75 707.22 2.1548-2.9817-0.33408 1.66z"/>
   <path d="m233.19 706.4 1.3238-2.1527h0.82894z"/>
   <path d="m262.16 708.05c-2.9817 1.6474-6.1304-2.658-9.5986-2.9859v-0.82894z"/>
   <path d="m296.75 710.21c-8.943-1.9961-17.882-2.6622-26.825-5.9717 9.1017 2.6455 17.882 1.4908 26.825 5.9717"/>
   <path d="m275.05 717.64c-2.3156 1.8187-4.295-2.1569-6.4499 0.33199 0.82477 0.66608 0.98346 1.3134 0.82477 2.1569-5.4664 4.8004-8.1161-2.1569-13.75 2.3114h-0.98555c1.8187-0.66607 3.1425-1.9836 4.8024-2.6455l-2.1528-2.1548c-7.9553 0.65981-14.906 6.951-22.022 7.2893-3.6415-4.9778-9.607 0.66607-14.739-1.66l-7.2851-0.49069 0.82268-2.9838c-0.65772-0.83938-1.9794-0.33617-2.9775-0.50947 1.6558-0.49278 4.8066-0.32991 5.6314-2.9712l-1.3238-0.83103c3.8085-1.9794 9.7698 0.66608 12.085-3.9693-0.49694 1.3259 0.83312 2.3219 1.8249 2.6476 4.9674 2.1527 7.9428-1.66 11.096-4.3034 7.9345 4.1384 17.381 6.4561 26.489 9.0975 0.6619-0.49068 0.16913-1.4846 0.32991-2.1402-4.3076-3.3116-10.267-2.4847-14.731-5.6356-3.8148 0.16913-5.7963-3.8023-9.939-3.1404 1.8166-5.1428 5.2952 0.15869 8.2769 0.98346 7.6171 3.6436 15.57 6.7986 24.173 8.1245z"/>
   <path d="m206.34 712.85c4.3076-1.1588 10.1-0.50739 12.085-5.1323-1.1547 4.959-8.4398 3.6415-12.085 5.1323"/>
   <path d="m287.63 713.36c-8.7759 0.17331-15.896-1.9836-23.849-4.8003 7.4605 1.6662 16.228 3.4786 23.849 4.8003"/>
   <path d="m195.1 710.21 3.1446-1.1735h2.4868z"/>
   <path d="m182.99 712.02 0.99598-0.49695 1.1588 0.49695z"/>
  </g>
  <path d="m240.46 712.53c0.49068 1.1672-0.49904 1.8291-1.163 2.4889-0.65773 0.15869-0.9939-0.50112-1.3238-0.83103 0.66607-0.98345 0.83102-2.1506 2.4868-1.6579" fill="#2f393e"/>
  <g fill="#231f20">
   <path d="m189.64 716.34 0.33199-0.83103h0.83103z"/>
   <path d="m235.55 182.47c-100.51 0-182.28 123.11-182.28 274.45 0 151.32 81.771 274.43 182.28 274.43 100.51 0 182.28-123.11 182.28-274.43 0-151.33-81.771-274.45-182.28-274.45m0 551.4c-49.467 0-95.932-28.877-130.83-81.311-34.799-52.273-53.961-121.76-53.961-195.64 0-73.891 19.162-143.38 53.961-195.65 34.903-52.436 81.37-81.314 130.83-81.314 49.463 0 95.928 28.877 130.83 81.314 34.801 52.278 53.967 121.76 53.967 195.65 0 73.886-19.166 143.37-53.967 195.64-34.907 52.434-81.372 81.311-130.83 81.311"/>
   <path d="m300.05 37.209c1.8082 0 3.2782 1.4679 3.2782 3.2761 0 1.8061-1.47 3.274-3.2782 3.274s-3.2803-1.4679-3.2803-3.274c0-1.8082 1.472-3.2761 3.2803-3.2761m0 9.0703c3.1968 0 5.8026-2.5975 5.8026-5.7942 0-3.1967-2.6058-5.7963-5.8026-5.7963-3.1988 0-5.8026 2.5996-5.8026 5.7963 0 3.1968 2.6038 5.7942 5.8026 5.7942"/>
   <path d="m172.19 37.732c1.8061 0 3.2761 1.4679 3.2761 3.274 0 1.8061-1.47 3.2782-3.2761 3.2782-1.8103 0-3.2824-1.472-3.2824-3.2782 0-1.8061 1.472-3.274 3.2824-3.274m0 9.0703c3.1968 0 5.7963-2.5996 5.7963-5.7963 0-3.1967-2.5996-5.7942-5.7963-5.7942-3.2009 0-5.8047 2.5975-5.8047 5.7942 0 3.1968 2.6038 5.7963 5.8047 5.7963"/>
   <path d="m115.13 64.406c4e-3 0.87697-0.33408 1.6976-0.94796 2.3198-0.61596 0.62014-1.4366 0.96257-2.3156 0.96466h-0.0125c-0.86862 0-1.6892-0.33826-2.3094-0.95005-0.62223-0.61596-0.96675-1.4366-0.96884-2.3114-8e-3 -1.8061 1.4595-3.2803 3.2698-3.2886h0.0104c0.87071 0 1.6892 0.33826 2.3073 0.95213 0.62014 0.61596 0.96466 1.4386 0.96675 2.3114zm-3.274-5.7859h-0.0209c-3.1988 0.01462-5.7922 2.6246-5.7817 5.8172 8e-3 1.5493 0.61805 3.0047 1.7184 4.0946 1.0941 1.0837 2.5453 1.6788 4.08 1.6788h0.0251c1.5493-0.0021 3.0026-0.61179 4.0925-1.7101 1.09-1.0983 1.6871-2.5536 1.6808-4.1029-4e-3 -1.5472-0.61179-3.0005-1.7101-4.0925-1.092-1.0879-2.5411-1.685-4.0842-1.685"/>
   <path d="m236.3 27.743c1.8082 0 3.2782 1.47 3.2782 3.2782 0 1.8061-1.47 3.274-3.2782 3.274s-3.2803-1.4679-3.2803-3.274c0-1.8082 1.472-3.2782 3.2803-3.2782m0 9.0724c3.1988 0 5.8026-2.5996 5.8026-5.7942 0-3.1967-2.6038-5.7984-5.8026-5.7984s-5.8005 2.6017-5.8005 5.7984c0 3.1947 2.6017 5.7942 5.8005 5.7942"/>
   <path d="m356.42 62.57c0.42178-0.75586 1.1171-1.3029 1.9586-1.541 0.29441-0.08143 0.59717-0.12319 0.89367-0.12319 0.55541 0 1.1046 0.14407 1.6015 0.42596 0.76004 0.42595 1.3092 1.1254 1.5451 1.9669 0.23595 0.83938 0.12737 1.7247-0.30067 2.4847l-6e-3 0.0084c-0.41969 0.75795-1.115 1.305-1.9523 1.543-0.84773 0.24012-1.7351 0.13363-2.4994-0.2965-0.76212-0.42804-1.3113-1.1296-1.5451-1.9732-0.23595-0.84565-0.12737-1.7289 0.30485-2.4952m4e-3 6.6649c0.88114 0.49486 1.8521 0.74751 2.8355 0.74751 0.52827 0 1.0607-0.07308 1.5869-0.22133 1.4846-0.42178 2.7186-1.3948 3.4682-2.7416 0.76004-1.3468 0.94796-2.9107 0.53036-4.4015-0.41552-1.4908-1.3885-2.7269-2.7332-3.4828-1.3489-0.76421-2.917-0.95214-4.4162-0.53244-1.4908 0.41969-2.729 1.3927-3.4745 2.7353-0.76004 1.3489-0.95005 2.9128-0.53244 4.4057 0.41551 1.4908 1.3864 2.7311 2.7353 3.4912"/>
   <path d="m247.85 102.05c4.0278 0 7.3018 3.2782 7.3018 7.3101 0 4.034-3.274 7.3143-7.3018 7.3143-4.0403 0-7.3248-3.2803-7.3248-7.3143 0-4.032 3.2844-7.3101 7.3248-7.3101m0 17.147c5.4163 0 9.8241-4.4141 9.8241-9.8366 0-5.4205-4.4078-9.8304-9.8241-9.8304-5.4288 0-9.8471 4.4099-9.8471 9.8304 0 5.4226 4.4182 9.8366 9.8471 9.8366"/>
   <path d="m270.73 104.76c4.034 0 7.3143 3.2803 7.3143 7.3143 0 4.0299-3.2803 7.308-7.3143 7.308s-7.3185-3.2782-7.3185-7.308c0-4.034 3.2844-7.3143 7.3185-7.3143m0 17.145c5.4247 0 9.8346-4.4099 9.8346-9.8304 0-5.4247-4.4099-9.8345-9.8346-9.8345s-9.8387 4.4099-9.8387 9.8345c0 5.4205 4.4141 9.8304 9.8387 9.8304"/>
   <path d="m291.6 110.42c4.0361 0 7.3185 3.2803 7.3185 7.3143 0 4.0299-3.2824 7.3101-7.3185 7.3101-4.0382 0-7.3227-3.2803-7.3227-7.3101 0-4.034 3.2844-7.3143 7.3227-7.3143m0 17.145c5.4247 0 9.8387-4.4099 9.8387-9.8304 0-5.4226-4.4141-9.8345-9.8387-9.8345-5.4288 0-9.845 4.412-9.845 9.8345 0 5.4205 4.4162 9.8304 9.845 9.8304"/>
   <path d="m312.47 118.59c4.032 0 7.308 3.2782 7.308 7.308 0 4.034-3.2761 7.3143-7.308 7.3143-4.0361 0-7.3185-3.2803-7.3185-7.3143 0-4.0299 3.2824-7.308 7.3185-7.308m0 17.145c5.4205 0 9.8325-4.412 9.8325-9.8366 0-5.4184-4.412-9.8283-9.8325-9.8283-5.4268 0-9.8408 4.4099-9.8408 9.8283 0 5.4247 4.4141 9.8366 9.8408 9.8366"/>
   <path d="m330.36 128.34c4.0278 0 7.3039 3.2803 7.3039 7.3143 0 4.0299-3.2761 7.3101-7.3039 7.3101-4.0361 0-7.3185-3.2803-7.3185-7.3101 0-4.034 3.2824-7.3143 7.3185-7.3143m0 17.145c5.4184 0 9.8262-4.4099 9.8262-9.8304 0-5.4247-4.4078-9.8345-9.8262-9.8345-5.4247 0-9.8387 4.4099-9.8387 9.8345 0 5.4205 4.4141 9.8304 9.8387 9.8304"/>
   <path d="m223.4 116.47c-4.032 0-7.3101-3.2782-7.3101-7.3101 0-4.032 3.2782-7.3122 7.3101-7.3122 4.0361 0 7.3185 3.2803 7.3185 7.3122 0 4.032-3.2824 7.3101-7.3185 7.3101m0-17.145c-5.4226 0-9.8325 4.412-9.8325 9.8345 0 5.4205 4.4099 9.8304 9.8325 9.8304 5.4268 0 9.8387-4.4099 9.8387-9.8304 0-5.4226-4.412-9.8345-9.8387-9.8345"/>
   <path d="m200.49 119.7c-4.034 0-7.3143-3.2803-7.3143-7.3143 0-4.0299 3.2803-7.3101 7.3143-7.3101 4.0403 0 7.3248 3.2803 7.3248 7.3101 0 4.034-3.2844 7.3143-7.3248 7.3143m0-17.145c-5.4247 0-9.8346 4.4099-9.8346 9.8304 0 5.4226 4.4099 9.8345 9.8346 9.8345 5.4288 0 9.8471-4.412 9.8471-9.8345 0-5.4205-4.4182-9.8304-9.8471-9.8304"/>
   <path d="m179.61 125.36c-4.032 0-7.3122-3.2803-7.3122-7.3143 0-4.0299 3.2803-7.308 7.3122-7.308 4.034 0 7.3164 3.2782 7.3164 7.308 0 4.034-3.2824 7.3143-7.3164 7.3143m0-17.145c-5.4226 0-9.8325 4.4099-9.8325 9.8304 0 5.4247 4.4099 9.8345 9.8325 9.8345 5.4247 0 9.8366-4.4099 9.8366-9.8345 0-5.4205-4.412-9.8304-9.8366-9.8304"/>
   <path d="m158.98 133.77c-4.032 0-7.3101-3.2782-7.3101-7.3101 0-4.032 3.2782-7.3143 7.3101-7.3143 4.0361 0 7.3185 3.2824 7.3185 7.3143 0 4.032-3.2824 7.3101-7.3185 7.3101m0-17.145c-5.4205 0-9.8325 4.412-9.8325 9.8345 0 5.4205 4.412 9.8304 9.8325 9.8304 5.4247 0 9.8387-4.4099 9.8387-9.8304 0-5.4226-4.4141-9.8345-9.8387-9.8345"/>
   <path d="m140.62 143.75c-4.034 0-7.3143-3.2803-7.3143-7.3143 0-4.0299 3.2803-7.3101 7.3143-7.3101 4.0361 0 7.3185 3.2803 7.3185 7.3101 0 4.034-3.2824 7.3143-7.3185 7.3143m0-17.145c-5.4247 0-9.8346 4.4099-9.8346 9.8304 0 5.4247 4.4099 9.8345 9.8346 9.8345s9.8387-4.4099 9.8387-9.8345c0-5.4205-4.4141-9.8304-9.8387-9.8304"/>
   <path d="m235.78 783.01c-128.28 0-232.63-145.35-232.63-324 0-128.78 54.222-240.25 132.54-292.47v4e-3c0.0104-8e-3 0.0188-0.0146 0.0292-0.0209 30.326-20.212 64.265-31.539 100.07-31.539 128.28 0 232.63 145.36 232.63 324.02 0 178.65-104.36 324-232.63 324m0.53245-659.27c35.077 0 68.875 9.8325 100.48 31.301l-1.353 2.9065c-30.287-20.845-64.703-30.435-99.337-30.435-35.164 0-69.658 10.091-100.66 31.41l-1.2779-2.7436c32.068-22.225 66.426-32.439 102.15-32.439m-111.98 11.307c34.958-24.674 72.492-37.192 111.59-37.192 38.683 0 75.858 12.269 110.51 36.455l-8.2998 17.842c-32.016-21.638-66.259-31.777-101.82-31.777-36.206 0-71.013 10.522-103.49 32.913zm-4.46-9.5798c32.669-23.653 72.84-37.626 116.23-37.626 42.802 0 82.468 13.599 114.89 36.67l-3.2072 6.8967c-35.07-24.35-72.694-36.703-111.87-36.703-39.591 0-77.576 12.601-112.94 37.44zm23.979-18.613c-4.6792 2.4117-9.252 5.0029-13.708 7.7591l-6.619-18.531c-1.1776-3.2782-1.6349-7.1744-1.3175-8.7592 0.11484-0.58882 0.43222-1.0565 0.89367-1.3154s1.0273-0.28815 1.5848-0.08561c1.4846 0.55124 4.6437 3.0214 6.8028 5.6836zm-48.837-43.107 23.762-13.357c11.231 16.85 31.022 46.561 34.523 51.893-2.4096 1.0878-4.7941 2.2196-7.1535 3.3972l-12.699-15.664c-2.301-2.8334-5.7629-5.669-7.8885-6.4582-1.2486-0.45936-2.5954-0.36749-3.6937 0.25265-1.0983 0.61805-1.8771 1.7205-2.1319 3.0234-0.44266 2.2216 0.18166 6.6587 1.4198 10.098l6.8028 19.053c-2.0713 1.3175-4.1196 2.6727-6.1388 4.0633-0.12111 0.0794-0.24012 0.15034-0.35914 0.22968-2.8606-6.0323-17.901-38.227-26.443-56.531m-9.4483 2.42-8.6465-15.382 6.191-3.4828 4.9444 8.7926 10.588-5.955-4.9444-8.7905 6.191-3.4828 4.9507 8.7947 10.58-5.9467-4.9486-8.7989 6.2014-3.4828 8.6486 15.384zm43.422-12.791 2.1653 5.8318 8.943-3.274-2.1736-5.8423 4.1948-1.5347 2.1674 5.8381 8.9513-3.2824-2.1799-5.8548 3.9359-1.4428c0.49903 3.0109 1.0795 6.5438 1.7059 10.371l-25.365 10.503c-2.4367-3.6603-4.6772-7.0199-6.5167-9.7803zm17.433-19.251-4.2408-17.132 6.8988-1.7143 2.42 9.797 11.797-2.9232-2.4263-9.7928 6.8946-1.7059 2.4304 9.7886 11.785-2.9149-2.4242-9.797 6.8988-1.6996 4.247 17.13zm10.609 54.677 4.959-2.0525c0.68905 4.2658 1.3071 8.0931 1.802 11.16-0.86235 0.32991-1.7184 0.66816-2.5724 1.0106zm-2.3302 0.96466 4.1844 10.108c-1.0858 0.4531-2.1715 0.91246-3.2469 1.3823-0.86861-1.328-3.1446-4.7649-6.1742-9.3209zm-6.761-6.7464c1.1818 1.8688 2.3344 3.6812 3.4264 5.3996l-3.3241 1.3739c-1.1192-1.6829-2.3114-3.4745-3.5538-5.3432zm-0.6264-11.096 3.0485 7.3644-7.2955 3.0234c-1.4679-2.2049-2.9817-4.4809-4.5038-6.7652zm-6.4499-0.06055-3.725 1.543c-1.4825-2.2258-2.9545-4.437-4.3807-6.5793l3.89-1.6099zm2.3636-0.97719-4.2157-6.6482 11.027-4.5644 0.26518 1.1776c0.4698 2.0901 0.96048 4.2825 1.4553 6.5021zm12.812 15.597-2.3072 0.95422c-1.092-1.7143-2.2425-3.5246-3.4285-5.3975l4.341-1.7978zm4.5018-8.6841c0.35287 2.1841 0.70157 4.3285 1.0357 6.3914l-3.1738 1.3134-1.3969-6.2411zm-8.137-19.105 4.7126-1.9523c0.41551 2.5432 0.84564 5.1825 1.282 7.8635l-4.2763 1.7706c-0.46353-2.0734-0.92081-4.1197-1.3593-6.0761zm6.4102 8.4669c0.43849 2.6977 0.87906 5.408 1.3134 8.0806l-7.4375 3.0819-3.0506-7.3644zm33.237 22.216c-5.2346 1.1672-10.394 2.539-15.466 4.1071l-1.5326-20.425c-0.25683-3.4745 0.34243-7.3519 1.0628-8.7968 0.26726-0.53453 0.69531-0.89993 1.2069-1.0273 0.50948-0.12737 1.0649-0.0063 1.5535 0.34452 1.3154 0.9417 3.654 4.0904 5.0426 7.2788zm11.946-2.2864c-3.1633 0.5053-6.3016 1.0837-9.4148 1.7351l-8.3521-18.974c-1.4574-3.345-4.0424-7.0011-5.8861-8.3228-1.0837-0.77256-2.4054-1.0419-3.629-0.73916-1.2194 0.30276-2.2592 1.1588-2.8564 2.3448-1.0106 2.0254-1.589 6.4666-1.3196 10.112l1.5493 21.026c-2.6539 0.85817-5.2848 1.7706-7.8906 2.7332-7.4834-46.462-9.6132-59.105-10.273-62.64l26.491-6.5564c1.5284 4.3974 6.5418 18.27 21.582 59.281m-12.292-53.013 0.97302 6.1784 9.4044-1.5263-0.96884-6.1722 4.4057-0.71619 0.97511 6.1743 9.4002-1.5201-0.97093-6.1743 4.3806-0.70784c-0.25473 3.3847-0.56794 7.5273-0.90619 12.023l-27.14 3.2886c-1.3676-3.7605-2.6288-7.2308-3.6937-10.179zm21.987 18.479 0.40716-7.8593 4.105-0.49695c-0.1921 2.5662-0.39046 5.2159-0.59091 7.8802zm-6.0364 20.189-1.85-6.1241 4.6625-0.56376c-0.11275 2.207-0.22342 4.3472-0.332 6.3872zm0.30903 2.5014c0.57211 4.7419 1.1046 9.2416 1.3238 11.071-0.91873 0.11902-1.8333 0.2443-2.7478 0.37793-1.067-2.9044-2.587-7.0262-3.9672-10.795zm-4.698-8.3166 1.8479 6.1221-3.4306 0.4176c-0.71827-1.9627-1.4637-3.9985-2.2237-6.0782zm-3.558-20.49 11.849-1.4366-0.40716 7.8614-9.1622 1.1129-1.0294-3.4035c-0.42595-1.4157-0.84356-2.7875-1.2507-4.1343m-4.8338 8.4001c-0.93126-2.5495-1.8458-5.0613-2.729-7.4834l5.0217-0.6097c0.44892 1.4783 0.9062 2.9942 1.3781 4.556l0.90202 2.9817zm10.766 1.2319 0.96049 7.9115-8.0305 0.9751c-0.92916-2.539-1.8709-5.1198-2.8084-7.686zm3.464 7.6087-0.96048-7.9115 9.275-1.1275c-0.20463 2.7374-0.40925 5.4664-0.60761 8.1036zm6.8487 10.595c-0.36749 4.9611-0.62432 9.3982-0.74124 11.332-1.1296 0.11484-2.2551 0.2443-3.3784 0.38211-0.23177-1.8562-0.79971-6.3434-1.3656-11.048zm-3.2761-2.1402c0.10857-2.0421 0.21715-4.1844 0.3299-6.3872l3.6144-0.43848c-0.16705 2.2404-0.32782 4.3911-0.47816 6.406zm31.189 12.424c-2.7708-0.11693-5.55-0.18166-8.3354-0.18166-2.5181 0-5.0279 0.05011-7.5315 0.14825l3.3596-19.68c0.58673-3.4348 2.1005-7.0512 3.1466-8.2769 0.38837-0.45519 0.89367-0.70784 1.4198-0.70784h2e-3c0.53035 0 1.0356 0.25265 1.4282 0.70992 1.0398 1.2173 2.5536 4.8338 3.1425 8.2748zm-21.511-61.866h27.267c1.5305 20.183 4.1468 56.251 4.5832 62.653-2.5495-0.2255-5.1094-0.40507-7.6839-0.53662l-3.5392-20.389c-0.62015-3.6081-2.2509-7.7758-3.7104-9.4858-0.86652-1.0127-2.0838-1.5952-3.345-1.5952h-2e-3c-1.2612 0.0021-2.4764 0.58464-3.3387 1.5952-1.4679 1.7163-3.0944 5.884-3.7125 9.4879l-3.4724 20.402c-2.5829 0.13572-5.1511 0.31947-7.709 0.55124 0.58673-8.3103 3.1884-43.199 4.6625-62.682m-9.419-2.5202v-17.65h7.1034v10.089h12.15v-10.089h7.0992v10.089h12.146v-10.089h7.1055v17.65zm44.118 10.125-0.97092 6.1555 9.3919 1.5242 0.97302-6.1617 4.4141 0.71619-0.96675 6.1596 9.3982 1.5138 0.97093-6.1576 3.773 0.60344c-1.0753 2.9316-2.3511 6.406-3.7271 10.15l-26.768-3.725c-0.32364-4.2867-0.62431-8.2372-0.8707-11.484zm6.9092 44.648 5.0426 0.70157c-1.7957 4.911-3.3074 9.158-3.9443 10.958-0.85818-0.12528-1.7205-0.23386-2.5829-0.3487 0.27562-2.182 0.86444-6.832 1.4846-11.311m2.2718-8.5901-1.9544 6.0886-2.468-0.34244-8e-3 -0.1921c-0.0689-1.969-0.14199-4.0633-0.21089-6.2014zm5.2451-16.335-1.2069 3.7542-9.1372-1.2674c-0.0919-2.7019-0.18374-5.3495-0.27562-7.8676l11.818 1.6454c-0.39046 1.2152-0.78927 2.4555-1.1985 3.7355m0.62641 17.151c-0.77257 2.1131-1.5159 4.1447-2.2133 6.0532l-3.0777-0.42804 1.9544-6.0886zm0.70157-13.044 1.0732-3.3387c0.45519-1.424 0.89785-2.8063 1.3322-4.151l4.2094 0.58464c-0.8895 2.4221-1.8061 4.9235-2.7311 7.4438zm2.9942 2.9608c-0.94796 2.587-1.8938 5.1657-2.8084 7.6609l-7.4688-1.0377 1.0983-7.899zm-21.471-5.527c-0.20045-2.6789-0.4009-5.3411-0.59508-7.9136l4.5874 0.63893c0.094 2.5119 0.18583 5.1595 0.2777 7.8676zm0.80598 10.705c-0.19837-2.6518-0.40508-5.3871-0.61179-8.1349l9.6028 1.3342-1.0983 7.8969zm0.67234 8.9993c-0.15034-2.0233-0.31112-4.1823-0.47816-6.4269l3.7292 0.51783c0.071 2.2049 0.14617 4.3577 0.21716 6.3914zm5.6564 3.3325c-0.6285 4.5435-1.2653 9.1935-1.5472 11.336-1.0565-0.12528-2.1152-0.24638-3.18-0.35496-0.10857-1.9857-0.35496-6.5793-0.73707-11.741zm33.607-1.0315-2.0567 19.128c-5.0008-1.47-10.083-2.7478-15.236-3.8315l8.5087-17.796c1.5013-3.1466 3.9443-6.2139 5.2806-7.1034 0.49903-0.32991 1.0524-0.43431 1.5639-0.29023 0.51365 0.14407 0.93543 0.52409 1.186 1.0649 0.67025 1.4595 1.1317 5.3558 0.75378 8.8281m-5.9279-45.508 26.219 7.4459c-3.9213 19.247-10.749 52.72-12.355 60.415-2.491-0.87697-5.0029-1.7038-7.5377-2.4847l2.1068-19.596c0.39881-3.6394-0.0292-8.0994-0.97092-10.156-0.55959-1.2048-1.5744-2.0922-2.7875-2.4346-1.2319-0.34661-2.5223-0.12737-3.6436 0.61805-1.8813 1.2486-4.5894 4.815-6.1617 8.1161l-8.7801 18.362c-2.5432-0.49904-5.101-0.95422-7.6755-1.3572 0.56168-1.5723 2.0296-5.5959 4.0006-10.985l0.094 0.01253 0.0626-0.43848c4.8044-13.136 12.459-33.993 17.429-47.517m-8.3813-4.9987 4.817-16.98 6.8362 1.9419-2.752 9.6988 11.697 3.3241 2.7395-9.7093 6.832 1.9398-2.7478 9.7072 11.682 3.3116 2.7541-9.7051 6.8382 1.9481-4.8191 16.98zm38.561 22.252-2.2028 5.8444 8.849 3.1905 2.1882-5.836 4.1009 1.4762-2.1987 5.8276 8.8365 3.1926 2.2091-5.8276 4.0466 1.4888c-1.9502 2.9274-4.3493 6.5313-6.9468 10.432l-24.2-10.321c0.79553-3.8941 1.5347-7.5231 2.1632-10.605zm-4.7502 44.617 5.5416 2.3615c-2.4492 3.6853-4.3786 6.5939-5.41 8.16-1.3008-0.55124-2.6079-1.092-3.9234-1.6161 0.76631-1.7999 2.1486-5.053 3.7918-8.9054m-2.3156-0.98972c-1.6683 3.9067-3.0673 7.1974-3.8252 8.9826-1.0085-0.38837-2.0191-0.7663-3.0318-1.138 0.38628-1.8458 1.115-5.3808 2.04-9.8951zm0.0919-9.5443c-0.38628 1.6161-0.76003 3.2072-1.1192 4.7377l-0.34661 1.4825-2.9232-1.2486c0.40298-1.9753 0.8352-4.0925 1.2883-6.2933zm16.771-12.718c-0.94169 1.4533-1.9168 2.9566-2.9044 4.4767l-8.4982-3.6227c0.62849-2.6288 1.2361-5.2075 1.804-7.6588l10.977 4.6834zm-0.54914 5.479c0.90411-1.3927 1.7999-2.7729 2.6643-4.1092l1.614-2.4889 3.9338 1.6788c-1.4261 2.1402-2.894 4.3452-4.3681 6.5564zm-9.538 7.3477c1.0899-2.5703 2.1694-5.1031 3.1278-7.3394l8.8344 3.7647c-1.5222 2.2885-3.0339 4.5602-4.4955 6.7589zm-3.4912 8.0973-2.3031-0.98346 0.44683-1.9126c0.32573-1.3927 0.66608-2.8397 1.0169-4.3076l4.3138 1.8416c-1.2006 1.8542-2.3636 3.6457-3.4744 5.362m5.7232-4.1948 0.10649-0.16495 3.7062 1.5806c-1.2403 1.8667-2.4346 3.6603-3.5454 5.3328l-3.6352-1.5493c1.0795-1.6704 2.2028-3.4035 3.368-5.1992m-9.3564-18.352c0.53453-2.6205 1.067-5.2284 1.5827-7.7549l3.677 1.5681c-0.56794 2.4451-1.1756 5.0238-1.804 7.6609zm7.9324 6.12c-0.9584 2.2384-2.0358 4.7711-3.1278 7.3394l-6.9489-2.9629c0.53036-2.5954 1.0795-5.2785 1.6307-7.9762zm20.216 42.22c-4.4078-2.658-8.9263-5.1511-13.545-7.473l11.885-14.662c2.1987-2.7082 5.2973-5.1219 6.809-5.6773 0.56168-0.20462 1.1296-0.17748 1.589 0.08143 0.46145 0.261 0.78092 0.72663 0.89576 1.3092 0.30485 1.5806-0.1566 5.481-1.3259 8.7655zm11.167-63.29 23.766 13.367c-8.2101 17.587-22.442 48.041-26.021 55.61-2.207-1.4929-4.4454-2.9462-6.713-4.3514l6.4833-18.145c1.2257-3.4452 1.8542-7.876 1.4261-10.096-0.25892-1.305-1.0378-2.4075-2.134-3.0234-1.1004-0.61805-2.4451-0.70992-3.6937-0.25056-2.1214 0.77883-5.5917 3.6144-7.8969 6.4561l-12.244 15.103c-2.3553-1.1463-4.7398-2.2488-7.1452-3.3074 4.5164-6.8382 23.321-35.081 34.172-51.363m-6.9781-6.8174 8.6486-15.384 6.1951 3.4828-4.9465 8.7885 10.603 5.9613 4.9361-8.7947 6.1868 3.487-4.9361 8.7947 10.578 5.9508 4.9444-8.7947 6.1972 3.487-8.6423 15.387zm58.429 184.57c-19.515-27.132-41.861-48.922-66.113-64.843l17.038-36.628v2e-3l1.4219-3.0506c-1.305-0.95214-2.6246-1.8834-3.9505-2.8063 3.8712-8.1683 22.162-47.342 26.123-55.819l7.7778 4.3744 11.112-19.782-10.595-5.9571-4.9402 8.7926-6.1868-3.4786 4.9382-8.7926-10.582-5.9634-4.9361 8.7989-6.2077-3.4912 4.9444-8.7885-10.59-5.955-11.117 19.782 8.2059 4.6145c-0.58465 0.87905-1.4115 2.1193-2.4304 3.6478l-6.9552-2.5578-2.2133 5.8402-4.0988-1.4804 2.2008-5.8318-8.8511-3.1842-2.1903 5.8339-4.0988-1.4783 2.2029-5.8444-5.907-2.1298c0.47606-2.3386 0.86026-4.2261 1.1171-5.4852l8.5817 2.4388 6.193-21.83-11.687-3.3283-2.7541 9.7093-6.832-1.9377 2.7478-9.7072-11.685-3.3158-2.7395 9.7093-6.8466-1.9439 2.7541-9.703-11.689-3.3179-6.1889 21.828 9.0599 2.5745c-0.41761 1.1359-1.0315 2.8021-1.7894 4.8692l-6.7547-1.0795-0.96884 6.1555-4.4224-0.7141 0.96675-6.1576-9.3898-1.5201-0.9751 6.1596-4.4141-0.71828 0.97092-6.1555-7.4605-1.2027c-0.13572-1.7999-0.24848-3.2677-0.32573-4.3138h8.9158v-22.688h-12.15v10.087h-7.1055v-10.087h-12.142v10.087h-7.1076v-10.087h-12.142v22.688h9.4086c-0.0794 1.0482-0.19001 2.5265-0.32573 4.3347l-7.4584 1.2048 0.97093 6.1763-4.4224 0.7141-0.9751-6.1763-9.3814 1.5242 0.96884 6.1722-4.4308 0.71828-0.97093-6.1743-7.1097 1.1442c-0.77674-2.1527-1.4052-3.9004-1.8374-5.1282l8.9033-2.2029-5.4622-22.022-11.791 2.9086 2.4263 9.7949-6.8967 1.708-2.4284-9.7907-11.787 2.917 2.4263 9.7949-6.903 1.708-2.4221-9.797-11.791 2.9295 5.4518 22.024 8.9179-2.2091c0.22133 1.2257 0.59091 3.416 1.0753 6.3142l-6.7631 2.4826 2.1799 5.8548-4.2157 1.5451-2.1653-5.8402-8.9304 3.2719 2.1736 5.8423-4.2094 1.5389-2.1653-5.8318-7.0972 2.6038c-0.99807-1.4971-1.8228-2.7332-2.4012-3.5997l7.7758-4.3702-11.119-19.778-10.597 5.9508 4.9486 8.7989-6.1868 3.4765-4.9507-8.7947-10.584 5.9529 4.9444 8.7926-6.193 3.4828-4.9444-8.7926-10.586 5.9529 11.117 19.778 8.2059-4.6124c3.9192 8.3917 22.325 48.024 26.476 56.827-1.1192 0.79762-2.2321 1.6036-3.3346 2.4221l0.32155 0.68487-0.0292 0.0397 18.022 38.541c-23.972 15.875-46.064 37.497-65.382 64.355-44.423 61.757-68.886 143.85-68.886 231.14 0 87.294 24.463 169.38 68.886 231.14 44.539 61.918 103.81 96.015 166.9 96.015 63.085 0 122.35-34.097 166.89-96.015 44.425-61.759 68.892-143.84 68.892-231.14 0-87.298-24.467-169.39-68.892-231.14"/>
   <path d="m252.22 293.43c-3.3095 2.6434-8.7697 0.82477-10.762-1.66z"/>
   <path d="m211.96 336.16c0.50112 1.8228-0.49695 2.9859-1.6558 3.9693h-1.8187c-1.3301-1.8187 2.4764-2.4847 1.3238-4.8003l-2.9796-0.82894c0.65564-2.4785 5.6314-1.3217 5.1302 1.66"/>
   <path d="m214.64 346.11c0 1.6495-1.1588 3.3095-2.6497 3.9651-0.99807 0.32782-1.3217-0.65564-2.1506-0.82477 2.3198-0.6619 2.3198-10.425 4.8003-3.1404"/>
   <path d="m96.766 691.46-0.32573-0.0146c-0.70992-0.5909-1.2716-0.82059-1.6892-0.69948-0.41552 0.11902-1.7184 0.96884-3.915 2.5578-1.0607 0.76839-2.0755 1.5723-3.036 2.4137-4.3911-2.7708-7.7298-5.742-10.016-8.9116-3.013-4.1719-4.2073-8.4648-3.5747-12.858 0.63476-4.3911 3.1091-8.1474 7.4292-11.269 5.6251-4.0487 11.286-4.6646 16.973-1.827 2.6017 1.2987 5.0697 3.5559 7.402 6.784 1.351 1.873 2.4931 3.9255 3.4348 6.145 0.77048 1.8354 1.257 3.3742 1.4512 4.6124l-0.21715 0.4176c-1.3134 0.4886-3.4056 1.614-6.2661 3.3763l-0.332-0.0689-0.75794-1.0419 0.0647-0.30277c0.23595-0.17957 0.70993-0.55541 1.4136-1.14 0.70784-0.58465 1.186-1.0169 1.4428-1.3029 0.36958-1.0524 0.37375-2.3929 6e-3 -4.0006-0.40925-1.7184-1.1672-3.368-2.2843-4.9027-2.9796-4.128-6.8215-5.7003-11.536-4.7126-2.1715 0.46354-4.3431 1.4804-6.5104 3.0464-3.4682 2.5035-5.7191 5.4434-6.7506 8.824-1.0732 3.5079-0.57003 6.7046 1.5096 9.5882 1.1066 1.5347 2.5223 2.7645 4.2449 3.6749 0.93752-0.5387 2.1674-1.3593 3.6895-2.4618 1.2382-0.8874 1.9523-1.472 2.1507-1.7539 0.14616-0.21715 0.12946-0.54288-0.05429-0.98554-0.15034-0.3654-0.76839-1.4094-1.8521-3.1487l0.05011-0.3299 1.1797-0.84565 0.32364 0.0501c1.1693 1.7331 2.4388 3.5204 3.7918 5.3746 0.78509 1.0607 1.9606 2.6539 3.5246 4.769l-0.06473 0.30067z"/>
   <path d="m136.8 706.87-0.32782-4e-3c-1.1609-1.2319-2.1715-1.5932-3.0214-1.0795-0.46981 0.29232-1.376 1.0315-2.7207 2.2279-1.0043 0.88114-2.4242 2.1945-4.2512 3.9317l-5.1637 4.888c-3.3116 3.1425-6.262 4.7711-8.8469 4.8901-3.4097 0.15869-6.5355-1.2549-9.3689-4.2512-2.5912-2.7353-4.1322-5.3307-4.6229-7.7946-0.40507-2.0818-0.03132-4.0382 1.1066-5.8819 0.73916-1.163 3.1529-3.6895 7.2517-7.5774l4.3243-4.0904c2.658-2.5182 4.3264-4.2303 5.0008-5.124 0.27353-0.35914 0.30903-0.73915 0.11066-1.1234-0.10231-0.20671-0.6264-0.86444-1.5764-2.0024l0.0209-0.30903 1.1254-1.0649 0.30903-8e-3c0.88741 1.0774 2.3824 2.7144 4.4892 4.9402 2.136 2.2551 3.6916 3.8294 4.6584 4.7085l-0.023 0.30903-1.1254 1.0607-0.30902 8e-3c-1.0774-0.99598-1.708-1.543-1.898-1.6579-0.38628-0.23386-0.76421-0.21924-1.1317 0.0439-0.92708 0.6264-2.7207 2.207-5.3829 4.7252l-3.4473 3.2657c-4.2262 3.9965-6.6462 6.6253-7.2621 7.8697-1.2006 2.4931-0.47398 5.1365 2.1674 7.9282 1.7351 1.8312 3.5663 2.8 5.4873 2.9044 0.91246 0.0418 1.6934-0.0564 2.3448-0.31111 0.6452-0.25474 1.5096-0.79554 2.5891-1.6245 1.0127-0.77465 1.9857-1.6057 2.9253-2.4952l3.4807-3.2949c2.9253-2.7687 4.9173-4.6792 5.9634-5.7107 0.98971-0.97928 1.5827-1.6642 1.7873-2.0462 0.14198-0.30694 0.1378-0.65355-2e-3 -1.0419-0.1232-0.33617-0.64729-1.0544-1.5764-2.1674l0.023-0.30903 1.1254-1.0649 0.30903-0.0104c0.79136 0.96883 1.6412 1.9335 2.5536 2.8961 0.68487 0.72454 2.0296 2.0734 4.032 4.0633l-4e-3 0.31946z"/>
   <path d="m155.28 736.51c2.4618-3.4807 3.5684-6.7109 3.3262-9.6905-0.13572-1.5702-0.67652-2.9838-1.6203-4.2575-0.91664-1.2173-2.4242-2.5557-4.5164-4.0528-1.0962-0.77257-2.2028-1.4303-3.322-1.9753-1.1087 1.3301-3.5726 4.6876-7.3937 10.091l-5.7901 8.256c-1.2883 1.8416-2.1068 3.0924-2.4597 3.7459 0.92081 0.91663 1.9231 1.7498 3.0005 2.514 2.3365 1.6579 4.4412 2.5954 6.3079 2.8313 2.0191 0.24639 4.1238-0.28397 6.3204-1.5764 2.2676-1.3342 4.3138-3.297 6.1471-5.8861m6.0427 2.9232c-3.013 4.2554-6.8007 6.8675-11.369 7.8405-2.2404 0.46772-4.5331 0.44266-6.8925-0.0981-2.5077-0.56168-5.0426-1.7665-7.5899-3.654l-6.1367-4.5059c-1.6788-1.2257-3.1049-2.1862-4.2784-2.8668l-0.0355-0.30902 0.36749-0.52618 0.23803-0.1754c1.2967 0.0418 2.0296-2e-3 2.2008-0.11066 0.27144-0.14407 0.92081-0.93752 1.9606-2.3657l3.0443-4.1823 6.761-9.5443c2.1131-2.9921 3.4181-4.9945 3.9067-6.0093 0.19628-0.40299 0.15869-0.77674-0.11066-1.1254-0.13781-0.16495-0.78092-0.72245-1.9189-1.6349l-0.0501-0.31946 0.90202-1.2841 0.31112-0.0313c1.1881 0.95422 2.349 1.8312 3.4765 2.6267 2.7416 1.9377 5.2284 3.6498 7.4814 5.1261 1.1192 0.74124 2.2342 1.495 3.3387 2.278 3.0485 2.1674 5.1282 4.1886 6.2411 6.0886 1.2173 2.088 1.7059 4.3556 1.4783 6.8153-0.24221 2.5223-1.353 5.1762-3.3262 7.9679"/>
   <path d="m252.45 767.72c-0.28815 2.2467-0.41134 4.7836-0.37167 7.615l-0.20462 0.23386-15.714 0.0793c-2.6163 0.0376-4.46 0.11902-5.5353 0.22551l-0.21716-0.22969-0.0104-0.65146 0.0898-0.27561c1.0691-0.73081 1.6412-1.1985 1.7143-1.3823 0.13572-0.29023 0.19627-1.3259 0.19001-3.0756l-0.0104-5.1699-0.16704-11.697c-0.0522-3.654-0.17748-6.0511-0.38002-7.1514-0.0794-0.4364-0.32782-0.72454-0.7496-0.8373-0.21715-0.0606-1.0524-0.13154-2.5161-0.20045l-0.23177-0.22132-0.023-1.5723 0.2255-0.2088c1.447 0.0668 3.6937 0.0793 6.738 0.0376 2.7082-0.0397 7.8593-0.15869 15.437-0.35287l0.24012 0.18166-0.24638 2.5578c-0.0752 0.82268-0.12528 1.5055-0.1566 2.0818l-0.12946 2.1423-0.20463 0.26517-1.2674 0.0188-0.21298-0.23177c-0.0438-2.0901-0.17539-3.2886-0.39463-3.5684-0.1566-0.21089-0.92917-0.37793-2.326-0.48233-1.3927-0.10231-2.6205-0.14825-3.6624-0.13363-1.2632 0.0167-2.5265 0.0898-3.8044 0.22759-0.13363 1.6078-0.1733 3.8503-0.13363 6.7171l0.0689 4.7732c1.1401 0.0668 2.063 0.0877 2.7708 0.0773l2.8126-0.0668c1.3238-0.0292 2.0797-0.1566 2.2634-0.37793 0.21924-0.2777 0.35079-1.3238 0.38419-3.1153l0.2276-0.24012 1.3405-0.0188 0.21925 0.23177c-0.0418 1.7247-0.0543 3.297-0.0334 4.7335 0.023 1.5493 0.0814 3.2469 0.1733 5.0948l-0.21298 0.21298-1.4491 0.0209-0.21089-0.23386c-0.0271-1.7686-0.16077-2.8146-0.38837-3.1383-0.24221-0.32782-0.94796-0.54497-2.1131-0.62849-0.88323-0.0689-1.8166-0.0919-2.8209-0.0793-1.0482 0.0167-2.0212 0.0668-2.9232 0.16078l0.0981 7.0387c0.0292 2.0149 0.0898 3.961 0.19836 5.859l2.9316-0.0418c4.1969-0.0605 6.7693-0.27979 7.7215-0.64311 0.15034-0.0626 0.27353-0.14407 0.34244-0.26517 0.13363-0.20672 0.26517-0.67861 0.40089-1.3823l0.46146-2.8794 0.20462-0.25265 1.3426-0.0188z"/>
   <path d="m286.37 750.11c-1.2131-4.0862-3.0694-6.951-5.5541-8.6089-1.3154-0.86653-2.7624-1.3196-4.3493-1.3614-1.5138-0.0334-3.5162 0.31529-5.9759 1.0482-1.2758 0.37793-2.4889 0.84147-3.6018 1.3781 0.34452 1.6892 1.472 5.7086 3.3471 12.052l2.8961 9.6592c0.65981 2.1527 1.1317 3.5663 1.4282 4.247 1.2883-0.1566 2.5662-0.41969 3.842-0.79345 2.7311-0.8185 4.7774-1.8876 6.1158-3.2155 1.4345-1.4324 2.3323-3.416 2.6706-5.9362 0.34452-2.6142 0.071-5.4309-0.8185-8.469m6.0344-2.9441c1.4762 5.0071 1.186 9.5986-0.87905 13.793-1.0106 2.0442-2.4618 3.8294-4.3368 5.3474-1.992 1.637-4.5122 2.8585-7.5607 3.7041l-7.3435 2.0296c-2.0003 0.5575-3.6311 1.09-4.9006 1.5911l-0.26309-0.15869-0.17957-0.61805 6e-3 -0.2965c0.82268-0.99598 1.2612-1.5994 1.28-1.7978 0.0438-0.29859-0.16495-1.3092-0.65772-3.0026l-1.4032-4.982-3.3095-11.221c-1.0461-3.51-1.8061-5.7713-2.2989-6.7798-0.20671-0.40716-0.51574-0.60761-0.94796-0.6097-0.23386 2e-3 -1.0524 0.16913-2.4764 0.4886l-0.28606-0.15451-0.45519-1.5013 0.17122-0.26726c1.4846-0.34035 2.8919-0.70784 4.2178-1.1004 3.2093-0.95631 6.1054-1.8542 8.6527-2.7019 1.2737-0.43013 2.5599-0.83103 3.8607-1.2236 3.5768-1.0544 6.4666-1.4386 8.636-1.1359 2.3908 0.34034 4.483 1.3593 6.2724 3.0568 1.8291 1.7518 3.2343 4.2721 4.2011 7.5398"/>
   <path d="m334.56 722.99c-2.6038-3.6331-5.3453-6.0239-8.2268-7.1849-2.8877-1.1547-5.6543-0.79553-8.2957 1.0962-3.4891 2.4889-4.5936 5.8068-3.3304 9.9515 0.6452 2.1381 1.7247 4.27 3.2406 6.3956 2.7645 3.8628 5.6084 6.4478 8.5462 7.7361 3.0443 1.3259 5.9383 0.9918 8.684-0.96675 3.3492-2.395 4.3326-5.7567 2.9608-10.081-0.72246-2.3093-1.9147-4.6229-3.5789-6.9468m4.7001-4.8442c3.3032 4.6166 4.6396 9.1434 3.9965 13.566-0.62849 4.3117-3.0402 7.9741-7.2746 11-4.0215 2.8752-8.0326 3.9213-12.046 3.1446-3.9965-0.77883-7.5419-3.3137-10.603-7.6045-4.3076-6.0156-5.1261-11.72-2.4868-17.12 1.1964-2.443 3.2322-4.6918 6.0928-6.7422 4.0862-2.917 8.0848-4.0466 12.006-3.3826 3.9589 0.67651 7.402 3.0589 10.315 7.1389"/>
   <path d="m368.29 697.36c1.898 1.6871 3.0088 3.8044 3.3366 6.3434 0.30693 2.2258-0.0272 4.4997-0.99599 6.8111-0.87696 2.1235-2.324 4.3159-4.3368 6.5584-2.4826 2.7896-5.4643 5.0488-8.9492 6.7756l-0.59091-0.10023c-0.99181-1.5556-2.7061-3.4222-5.1407-5.598l0.023-0.33408 1.1359-1.28 0.32364-0.0292 0.39255 0.3487c0.65563 0.5742 1.5702 1.2632 2.7645 2.04 1.1588 0.1733 2.5599-0.12111 4.1948-0.88114 1.6892-0.80807 3.1696-1.9064 4.412-3.3095 2.3469-2.6309 3.1759-5.1616 2.5035-7.5753-0.35496-1.2445-0.97092-2.2571-1.8395-3.0381-1.4637-1.305-3.1487-1.5326-5.0614-0.68069-0.92916 0.43013-2.2049 1.3447-3.8232 2.7228-3.6248 3.1278-6.2974 4.9507-7.995 5.4351-2.6058 0.71619-5.0279 0.0668-7.2955-1.9523-2.3469-2.1005-3.4056-4.6938-3.1654-7.7737 0.26309-3.2469 1.9481-6.594 5.0258-10.052 2.7833-3.1091 5.4414-5.2472 8.0138-6.406l0.54289 0.23386c1.0795 1.5451 2.5536 3.1968 4.4057 4.9736l-0.0209 0.38001-1.1192 1.2591-0.35496 0.0418c-1.4198-1.1923-2.3782-1.9293-2.8752-2.2008-0.89367-0.0647-2.0024 0.23803-3.297 0.9229-1.3551 0.74751-2.5599 1.708-3.6102 2.894-1.6015 1.7852-2.4513 3.5559-2.5641 5.3161-0.0981 1.6537 0.46771 3.0318 1.6746 4.1092 1.3384 1.1881 2.7917 1.495 4.3974 0.9396 1.0398-0.35287 2.9399-1.7017 5.6919-4.057 0.29232-0.24012 1.0941-0.9229 2.4179-2.0316 0.81015-0.67234 1.6328-1.2444 2.4576-1.708 1.6266-0.96675 3.18-1.3802 4.7022-1.2591 1.6182 0.14198 3.1633 0.85817 4.6187 2.1611"/>
   <path d="m389.24 671.1c1.9961 1.541 3.2824 3.5454 3.842 5.9989 0.5053 2.1465 0.38628 4.3619-0.332 6.6837-0.68069 2.1131-1.8959 4.3076-3.6436 6.6044-2.1945 2.8397-4.9006 5.1929-8.162 7.0512l-0.593-0.0752c-1.115-1.4616-2.9712-3.18-5.5625-5.172l-0.0209-0.34243 0.99599-1.2988 0.32155-0.0418 0.43431 0.32364c0.68278 0.53245 1.6474 1.1484 2.8877 1.8354 1.1609 0.1211 2.5056-0.24639 4.0299-1.0879 1.5973-0.84773 2.9483-1.9878 4.0299-3.4118 2.0692-2.6852 2.6351-5.1887 1.7456-7.521-0.46354-1.1964-1.1526-2.1444-2.088-2.8522-1.5535-1.1985-3.2239-1.3259-5.0112-0.39672-0.88323 0.47398-2.0358 1.424-3.4828 2.8522-3.274 3.2343-5.7358 5.1302-7.3644 5.6857-2.4785 0.83729-4.9068 0.33617-7.3122-1.4992-2.5077-1.9293-3.773-4.3953-3.8169-7.3958-0.0626-3.1863 1.257-6.5418 3.9651-10.058 2.4304-3.178 4.8609-5.385 7.2767-6.6336l0.53662 0.18375c1.211 1.4554 2.8105 2.9859 4.7941 4.6103l0.0146 0.37375-0.97719 1.2758-0.35078 0.0647c-1.4929-1.0774-2.491-1.7435-3.0047-1.9815-0.90202-0.023-1.946 0.32782-3.1612 1.0524-1.2528 0.81224-2.349 1.8124-3.2824 3.0151-1.3864 1.8166-2.063 3.5851-2.0024 5.3077 0.0501 1.612 0.73498 2.9274 2.04 3.9192 1.3969 1.0753 2.8501 1.305 4.3806 0.68069 0.97928-0.40299 2.7144-1.8208 5.1971-4.2449 0.26517-0.26101 0.99389-0.9584 2.1882-2.0964 0.7308-0.70993 1.4783-1.3071 2.2363-1.8103 1.5096-1.019 3.0067-1.5075 4.5018-1.4595 1.6057 0.0439 3.18 0.67025 4.7502 1.8604"/>
   <path d="m216.41 774.24c-0.10231 0.0731-0.15243 0.11066-0.25474 0.18583-1.4136-0.39463-3.6394-0.92708-6.6462-1.6036-3.0715-0.69113-5.2994-1.1756-6.6691-1.4011-0.0564-0.0981-0.0856-0.14825-0.1399-0.2443 0.14616-0.61387 0.22133-0.91872 0.36749-1.5305 0.10649-0.071 0.15869-0.1044 0.26518-0.17539 1.4741 0.25473 2.3323 0.37375 2.5557 0.36331 0.45936-0.023 0.77047-0.24221 0.93751-0.65772 0.42178-1.0273 1.09-3.3304 1.9398-6.8925 1.447-6.0719 2.1694-9.1079 3.6185-15.178-2.8606 3.6686-4.2971 5.4977-7.1849 9.1476-0.41551 0.50738-1.8416 2.3866-4.3118 5.6105-2.4409 3.2072-3.6645 4.8087-6.1241 7.9992-0.57838-0.14198-0.86653-0.21298-1.4428-0.35496-0.29232-2.0442-0.71619-4.6291-1.2674-7.7799-0.52618-2.9629-0.78718-4.4433-1.3008-7.4083-0.97928-5.4581-1.4595-8.1892-2.3929-13.656-1.6057 6.2035-2.4075 9.3042-4.0132 15.51-0.91455 3.5454-1.4178 5.8819-1.5138 7.0011-0.0376 0.44266 0.13781 0.79554 0.51366 1.019 0.19418 0.11693 1.0043 0.41761 2.4304 0.8895 0.071 0.11275 0.1044 0.16704 0.17331 0.27979-0.1566 0.6097-0.23595 0.91246-0.39046 1.5242-0.11275 0.0543-0.16704 0.0814-0.27979 0.13572-1.6078-0.522-3.1258-0.98136-4.5352-1.3656-1.6307-0.44475-3.2991-0.84356-4.9611-1.211-0.0606-0.10649-0.0898-0.15869-0.15034-0.26309 0.16078-0.60761 0.24012-0.91246 0.4009-1.518 0.10231-0.0689 0.15451-0.10232 0.25683-0.17122 1.4679 0.32155 2.3156 0.47189 2.5432 0.46772 0.44892-6e-3 0.7663-0.21298 0.94378-0.61806 0.43848-1.0127 1.1526-3.3053 2.0755-6.8529 1.234-4.7231 1.8521-7.0846 3.0861-11.808 0.91873-3.5475 1.4136-5.8945 1.5347-6.9948 0.048-0.44892-0.11484-0.79971-0.49695-1.0294-0.19001-0.11484-0.98136-0.40716-2.3699-0.89784-0.0564-0.11485-0.0835-0.17122-0.1399-0.28606 0.16078-0.60344 0.24221-0.9062 0.40299-1.5076 0.10022-0.0626 0.15033-0.094 0.25056-0.15451 1.4115 0.49277 9.5631 2.3344 9.9118 2.7019 0.36332 0.38211 0.41969 3.0193 0.74751 5.3015 0.22551 1.376 0.34035 2.063 0.57003 3.4369 1.1776 6.6441 1.7832 9.964 3.0297 16.598 1.9899-2.4576 2.9817-3.6874 4.959-6.1534 3.155-4.0925 4.7231-6.145 7.8468-10.263 0.91664-1.2215 2.1862-3.7689 2.7917-3.9902 0.61597-0.22551 8.0305 1.8917 9.5297 2.1152 0.0626 0.10231 0.094 0.15034 0.15451 0.25056-0.14407 0.62014-0.21297 0.93125-0.35705 1.5514-0.0981 0.0626-0.14825 0.094-0.24847 0.15869-1.4679-0.21715-2.3177-0.33199-2.539-0.31737-0.42804 0.0271-0.73915 0.261-0.91455 0.67442-0.43639 1.0398-1.0649 3.3408-1.9001 6.9092-1.1129 4.7523-1.6683 7.1285-2.7792 11.883-0.8352 3.558-1.2779 5.9091-1.3468 7.0283-0.0271 0.44683 0.15452 0.78927 0.5408 0.99807 0.19627 0.10649 1.0315 0.3654 2.4868 0.76839 0.0626 0.10857 0.094 0.16286 0.15868 0.26726-0.14198 0.60553-0.21089 0.9062-0.35287 1.5076"/>
  </g>
 </g>
</svg>
