<?xml version="1.0" encoding="UTF-8"?>
<svg width="471.58" height="582.11" version="1.1" viewBox="21.38 50.91 471.58 582.11" xml:space="preserve" xmlns="http://www.w3.org/2000/svg">
<style type="text/css">
	.st0{fill:#0091D3;}
	.st1{fill:#FFFFFF;}
	.st2{fill:#2B2523;}
	.st3{fill:#13110C;stroke:#13110C;stroke-miterlimit:10;}
</style>
<g transform="matrix(15.092 0 0 15.092 -301.29 -717.44)"><path class="st0" d="m37.026 89.46v0.01c17.17-13.29 15.56-34.59 15.56-38.56l-31.17 0.01c0 3.73-1.55 25.27 15.62 38.56z"/><path class="st1" d="m47.996 62.68s0.64 0.94 0.11 2.13c-0.69 1.55-1.65 3.86-1.65 3.86l-8.99-13.95v-0.22c0.1 0.1 0.23 0.15 0.37 0.15 0.29 0 0.53-0.24 0.53-0.53s-0.24-0.53-0.53-0.53c-0.15 0-0.28 0.06-0.38 0.16l-0.08-0.11c0.09-0.1 0.15-0.22 0.15-0.37 0-0.29-0.24-0.53-0.53-0.53s-0.53 0.24-0.53 0.53c0 0.14 0.06 0.27 0.15 0.37l-0.08 0.11c-0.1-0.1-0.23-0.16-0.38-0.16-0.29 0-0.53 0.24-0.53 0.53s0.24 0.53 0.53 0.53c0.15 0 0.28-0.06 0.37-0.16v0.23l-8.99 13.95s-0.37-0.88-1.65-3.82c-0.52-1.19 0.12-2.13 0.12-2.13l-2.2-1.06s2.51 8.56 3.76 11.2c0.88 1.84 2.37 3.27 4.32 3.27h10.21c1.97 0 3.53-1.41 4.36-3.27 1.2-2.71 3.75-11.2 3.75-11.2zm-10.16-8.9c0.19 0 0.34 0.15 0.34 0.34s-0.15 0.34-0.34 0.34-0.34-0.15-0.34-0.34c0.01-0.19 0.16-0.34 0.34-0.34zm-1.68 0.67c-0.19 0-0.34-0.15-0.34-0.34s0.15-0.34 0.34-0.34 0.34 0.15 0.34 0.34-0.15 0.34-0.34 0.34zm-0.12 16.09h-2.44c-4.82-0.04-5.45-1.27-5.45-1.27l8.5-13.86zm0.96-16.93c-0.19 0-0.34-0.15-0.34-0.34s0.15-0.34 0.34-0.34 0.34 0.15 0.34 0.34-0.15 0.34-0.34 0.34zm3.38 16.93h-2.45l-0.61-15.14 8.5 13.87c0.01 0-0.62 1.22-5.44 1.27z"/></g>



</svg>
