<?xml version="1.0" encoding="UTF-8"?>
<svg width="471.58" height="599.53" version="1.1" viewBox="0 0 471.58 599.53" xmlns="http://www.w3.org/2000/svg">
 <defs>
  <style>.a{fill:#d3001b;}.b{fill:#ffd800;}.c{fill:#0a3d51;}</style>
 </defs>
 <g stroke-width="13.129">
  <path d="m4.8536 0c-2e-7 0-58.529 407.59 230.9 599.53 289.43-191.94 230.98-599.53 230.98-599.53zm201.31 41.642c10.477 6.0917 19.522 12.993 29.565 19.334 10.043-6.3411 19.088-13.242 29.591-19.334 0.0263 11.776-1.2972 22.77-1.7436 34.257 10.437 5.4878 20.96 9.8594 31.463 15.872-10.424 6.0917-20.934 10.549-31.437 16.129 0.40699 11.448 1.718 22.405 1.718 34.129-6.1704-3.5972-11.854-7.4207-17.539-11.359v35.847a10.503 10.503 0 0 0 8.949 10.359 85.848 85.848 0 0 1 68.259 46.771 157.54 157.54 0 0 1 11.744 71.951v42.027a27.715 27.715 0 0 0 11.821 26.026 30.34 30.34 0 0 0 13.436 4.1027v27.668a57.858 57.858 0 0 1-26.309-7.2823 53.644 53.644 0 0 1-26.591-50.566v-42.283c0.51202-45.753-4.7512-90.571-73.361-92.567-68.61 1.9824-73.86 46.814-73.361 92.567v42.283a53.644 53.644 0 0 1-26.565 50.566 57.871 57.871 0 0 1-26.334 7.2823v-27.668a30.34 30.34 0 0 0 13.436-4.154 27.701 27.701 0 0 0 11.821-26.026v-41.976a157.54 157.54 0 0 1 11.744-71.951 85.848 85.848 0 0 1 68.284-46.771 10.503 10.503 0 0 0 8.9234-10.359v-35.847c-5.7241 3.8729-11.355 7.7752-17.539 11.359-0.0263-11.776 1.2972-22.796 1.7436-34.283-10.424-5.4878-20.934-9.8725-31.437-15.872 10.424-6.0917 20.934-10.523 31.437-16.103-0.40699-11.448-1.718-22.405-1.718-34.129z" fill="#d3001b"/>
  <path d="m206.17 41.642c0 11.724 1.311 22.681 1.718 34.129-10.503 5.5797-21.013 10.011-31.437 16.103 10.503 5.9998 21.013 10.385 31.437 15.872-0.44638 11.488-1.7699 22.507-1.7436 34.283 6.1836-3.5841 11.815-7.4864 17.539-11.359v35.847a10.503 10.503 0 0 1-8.9234 10.359 85.848 85.848 0 0 0-68.284 46.771 157.54 157.54 0 0 0-11.744 71.951v41.976a27.701 27.701 0 0 1-11.821 26.026 30.34 30.34 0 0 1-13.436 4.154v27.668a57.871 57.871 0 0 0 26.334-7.2823 53.644 53.644 0 0 0 26.565-50.566v-42.283c-0.49889-45.753 4.7512-90.585 73.361-92.567 68.61 1.9956 73.873 46.814 73.361 92.567v42.283a53.644 53.644 0 0 0 26.591 50.566 57.858 57.858 0 0 0 26.309 7.2823v-27.668a30.34 30.34 0 0 1-13.436-4.1027 27.715 27.715 0 0 1-11.821-26.026v-42.027a157.54 157.54 0 0 0-11.744-71.951 85.848 85.848 0 0 0-68.259-46.771 10.503 10.503 0 0 1-8.949-10.359v-35.847c5.6847 3.9386 11.369 7.7621 17.539 11.359 0-11.724-1.311-22.681-1.718-34.129 10.503-5.5797 21.013-10.037 31.437-16.129-10.503-6.0129-21.025-10.385-31.463-15.872 0.44637-11.488 1.7699-22.481 1.7436-34.257-10.503 6.0917-19.547 12.993-29.591 19.334-10.043-6.3411-19.088-13.242-29.565-19.334z" fill="#ffd800"/>
 </g>
</svg>
