<?xml version="1.0" encoding="UTF-8"?>
<svg width="471.58" height="614.73" enable-background="new 30.5 31.5 412 533" version="1.1" viewBox="30.5 31.5 471.58 614.73" xml:space="preserve" xmlns="http://www.w3.org/2000/svg" xmlns:cc="http://creativecommons.org/ns#" xmlns:dc="http://purl.org/dc/elements/1.1/" xmlns:rdf="http://www.w3.org/1999/02/22-rdf-syntax-ns#"><metadata><rdf:RDF><cc:Work rdf:about=""><dc:format>
          
          
          
          image/svg+xml
        
        
        
        </dc:format><dc:type rdf:resource="http://purl.org/dc/dcmitype/StillImage"/></cc:Work></rdf:RDF></metadata><g><path d="m500.71 31.5h-468.81l-0.04925 1.1328c-5.935 143.65 7.7327 260.25 41.779 356.49 37.568 106.19 100.37 190.13 191.98 256.6l0.68954 0.50483 0.68954-0.50483c91.61-66.467 154.41-150.41 191.98-256.6 34.046-96.24 47.714-212.85 41.779-356.49l-0.04925-1.1328z" fill="#32ac60" stroke-width="1.2313"/><path d="m126.55 31.5h-94.651l-0.05051 1.1327c-1.7199 41.627-1.5938 80.73-0.0025 117.98l373.17 350.12c21.744-34.174 39.674-71.279 53.943-111.61 4.021-11.367 7.7339-23.041 11.188-34.987z" fill="#ffe000" fill-rule="evenodd"/></g></svg>
