<?xml version="1.0" encoding="UTF-8"?>
<!-- Created with Inkscape (http://www.inkscape.org/) -->
<svg width="241.84" height="308.92" version="1.1" viewBox="0 0 241.84 308.92" xml:space="preserve" xmlns="http://www.w3.org/2000/svg"><g transform="matrix(1.3333 0 0 -1.3333 0 308.92)"><g transform="scale(.1)" fill-rule="evenodd"><path d="m109.8 947.67c-120 370-73.043 1334.5-73.043 1334.5h1740.1s51.19-1036.6-79.52-1370.3c-227.55-580.88-792.29-868.53-792.29-868.53s-618.25 358.57-795.25 904.32" fill="#fcd405"/><g fill="#231f20"><path d="m1776.9 2282.1s20.9-896.23-45.36-1196.1c-69.73-317.32-191.77-631.17-822.96-1042.7h-3.484c-634.64 411.49-749.73 753.21-819.46 1049.6-69.75 303.39-48.836 1189.1-48.836 1189.1h1740.1zm33.68 34.75s21.73-922.32-47.08-1233.8c-72.46-329.62-199.22-655.63-854.85-1083h-3.633c-659.24 427.42-778.77 782.39-851.2 1090.3-72.453 315.12-50.727 1226.6-50.727 1226.6h1807.5"/><path d="m550.64 2041.1c8.043-0.68 15.562-3.41 21.96-7.51-6.136-4.63-13.496-7.63-21.542-8.85 2.597 1.91 4.214 4.76 4.214 8.04 0 3.4-1.91 6.55-4.632 8.32zm-10.348-16.65c-8.051 0.69-15.434 3.41-21.836 7.51 6.148 4.5 13.512 7.63 21.281 8.72-2.453-1.77-4.09-4.65-4.09-7.9 0-3.4 1.903-6.55 4.645-8.33zm-166.38-62.32s12.551-15.67 21.945-6.25c12.543 6.25 34.512 12.53 43.918 3.12 0 0 3.141-3.12 6.278-9.41 0 0-12.547 6.29-21.973 3.14-12.539-3.14-31.356-25.1-50.168 9.4zm-37.238-304.92s9.41 62.86 141.28 18.82c0 0 3.129 0 6.277-6.28 0 0 75.278 163.25 116.04 194.59 0 0 3.141 3.15 0 9.43 0 0-21.941 12.54-31.351 34.64 0 0-25.114-3.14-37.645 12.54 0 0-56.449 0-69.012 3.13-15.82 3.14-22.074 12.55-22.074 18.83 0 3.12 18.949 0 18.949 0s0 9.4 3.125 25.09c0 0 9.426-25.09 15.688-25.09h15.676s3.148 18.81 9.422 25.09c0 0 6.281-25.09 15.687-25.09 0 0 6.274-3.13 6.274 6.27 0 9.41-3.145 25.08-12.547 28.23 0 0-3.133 3.15-9.414 3.15-6.274 0-15.688-15.7-15.688-31.38 0 0-9.41 9.41-9.41 28.23v3.15h-12.551s-12.539 0-12.539-18.84v-6.26s-12.672 3.13-15.82 25.1c0 0-12.543 6.25-15.688 31.35 0 0-12.547 9.42-9.398 25.1 0 0-3.149 6.27 21.937 6.27l9.434-3.14s12.68 12.54 37.754 12.54c0 0 0 15.68 18.828 21.97 18.828 6.26 34.5 9.41 40.781 12.54 0 0 18.817 3.13 28.231-9.4l3.136-6.29 3.133 21.96s0 12.54 18.817 18.82c18.816 9.53 43.91-9.41 43.91-15.67 3.133-6.29-3.141-18.82-6.27-21.96l3.129-9.42s66.016 37.64 94.235 40.77c0 0 81.554 0 163.11-31.35 62.871-21.97 135.01 3.14 185.17 6.26 50.21 6.28 147.56 6.28 197.76-18.81 0 0 103.66-53.32 109.91-62.74 3.14-6.27 37.64-50.18 47.05-59.58 0 0 3.14-3.15 0-6.28-3.13-6.28-9.41-25.09-18.83-18.82 0 0-18.81 18.82-21.94 18.82-3.14-3.13-6.28-6.28-3.14-9.42 0 0 21.95-18.81 25.08-25.09 0 0 37.64-78.56 40.77-172.65 3.17-97.36 18.84-97.36 21.98-113.04 3.13-15.7 0-18.83-9.41-18.83 0 0-56.47 0-72.15-3.12-15.66-3.15-44.04-3.15-62.86-3.15 0 0-21.95 6.27-31.37-12.55l-3.14-9.4s-9.41 28.22 12.56 34.49c0 0-18.82 6.29-25.09-6.27 0 0-3.14-3.12-3.14-6.27 0 0-6.28 31.37 28.23 34.5 0 0-15.68 9.43-31.39-6.28 0 0 6.3 31.39 40.78 21.95 28.26-3.12 56.61-12.53 84.82-9.39 28.24 3.15 15.71 12.54 12.57 15.69-3.16 6.25-43.93 72.28-128.75 116.17-62.74 34.52-69.01 84.7-69.01 84.7s-153.81-222.84-160.08-229.12c-6.29-6.26-9.43-9.39-34.52-9.39-25.095 0-34.51-3.13-40.767-6.29-6.27-3.14-15.672-6.27-37.649-6.27 0 0-15.691 0-18.804-18.82 0 0-9.426 25.09 12.527 31.38 0 0 3.144 0 6.277 3.13 0 0-21.941 9.41-34.511-15.69 0 0 3.156 6.27 0 0 0 0 3.156 37.66 31.378 34.51 0 0-9.406 12.54-25.097 0l-6.281-6.28s6.281 31.37 34.511 25.11c0 0 9.426 0 12.551-6.29 0 0 9.426 3.15 43.915 0 31.37-3.15 28.24 3.15 31.37 12.55 0 0 18.81 141.29 21.96 156.96 0 15.69 15.67 28.23 47.03 40.78 0 0 6.29 3.14 3.15 9.41-6.27 6.27-25.08-3.13-25.08-3.13-12.56-3.14-56.48-18.83-156.84-18.83 0 0-47.195 0-78.551 12.55-31.371 9.41-18.812-9.4-15.684-12.55 0 0 21.946-25.09 25.106-47.03 6.25-25.1 6.25-135.02 9.391-141.31 0-3.11 0-12.55 9.406-21.94 9.414-9.41 0-15.68-3.133-18.82-3.137-3.13-9.414-9.42-25.086-9.42-12.543 0-21.957 3.16-53.324-3.14-28.238-9.4-47.055-9.4-53.313-9.4 0 0-28.23-3.14-34.515-18.81 0 0-3.129 28.21 21.968 34.51 0 0-21.968 6.26-31.382-12.55l-6.258-6.29s6.258 37.64 34.5 40.78c0 0-21.957 9.41-34.5-9.42 0 0 6.258 34.5 47.047 25.1 0 0 40.785 3.15 68.996 0 0 0 9.41-3.15 15.687-3.15 6.282 0 3.137 9.44 0 15.7-3.117 6.27-81.543 103.65-94.09 172.65 0 0-3.14 21.95-25.097 18.82 0 0-6.285-3.13-6.285-9.41-3.133-9.41 0-43.9-9.399-50.21-9.547-9.38-153.83-103.49-175.78-153.79 0 0 0-3.15-9.422-3.15-9.395 0-40.77 9.39-62.867 6.27 0 0-21.957-6.27-28.235-6.27-3.132-3.14-31.359-6.28-37.64-28.24 0 0-9.399 34.51 25.094 40.78 0 0-34.493 6.29-53.309-12.54 0 0 9.406 28.23 37.625 31.36 0 0-28.219 18.96-43.906-3.13"/><path d="m353.22 1514.8h126.93v-133.79h41.125v133.79h161.05v-133.79h41.106v133.79h157.77v-229.74l-41.086 0.01-0.023-490.28h133.48v490.28h-40.82l0.012 229.73h150.76v-133.79h44.53v133.79h154.35v-133.79h44.53v133.79h133.64v-229.59h-146.83l104.65-668.75h-1024.1l106.37 668.61h-147.5v229.73"/></g></g></g></svg>
