<?xml version="1.0" encoding="UTF-8" standalone="no"?>
<!-- Created with Inkscape (http://www.inkscape.org/) -->

<svg
   version="1.1"
   id="svg1"
   width="1005.8761"
   height="1280.4913"
   viewBox="0 0 1005.8761 1280.4913"
   xmlns="http://www.w3.org/2000/svg"
   xmlns:svg="http://www.w3.org/2000/svg">
  <defs
     id="defs1" />
  <g
     id="g1"
     style="display:inline;opacity:1"
     transform="matrix(0.57579854,0,0,0.57579854,-5.7324521,-6.5645104)">
    <path
       d="M 882.15505,2229.4851 C 544.33849,1989.7449 296.79413,1686.9572 158.24934,1303.9597 32.613583,956.70984 -1.7952682,535.87502 20.11372,17.445634 l 0.09091,-2.045262 H 1746.6509 l 0.091,2.045262 c 21.8634,518.429386 -12.5454,939.219756 -138.1357,1286.514066 -138.5448,382.9975 -386.0892,685.7852 -723.90571,925.5254 l -1.27272,0.8893 z"
       id="path8"
       style="display:inline;fill:#e00e00;stroke:#000000;stroke-width:7.99933;stroke-dasharray:none;stroke-dashoffset:0;stroke-opacity:1;paint-order:normal" />
    <path
       id="path68"
       style="display:inline;opacity:1;fill:#ffd700;fill-opacity:1;fill-rule:nonzero;stroke:#000000;stroke-width:16.8462;stroke-linejoin:round;stroke-dasharray:none;stroke-opacity:1;paint-order:stroke fill markers"
       d="m 1301.7012,176.6543 c -48.7204,13.2861 -97.7099,23.70357 -148.209,26.82031 -57.2194,5.1487 -114.7864,8.25441 -172.17384,3.55273 -8.04601,-3.17353 -16.47257,-5.09544 -24.82617,-7.26172 l -22,0.69336 c -28.06887,0.88463 -39.70508,1.52677 -60.13281,7.49024 -6.14911,4.90525 -15.15933,18.11048 -24.09151,17.93662 l -1.1956,0.0458 -56.95704,-0.35547 c -45.04151,-1.43272 -98.56645,3.97065 -139.07421,-16.56794 -15.44979,-2.04757 -32.47113,5.25055 -34.85584,6.25185 -16.78866,7.86733 -32.03066,18.3698 -47.5758,28.38687 l -0.28907,0.92774 -0.28711,0.92578 13.48047,14.46094 c 0,0 14.42905,-0.60641 20.97852,1.22656 14.17229,3.96633 28.28457,9.49958 42.07226,15.47656 l 5.46289,3.50391 c 13.63458,8.1882 22.78868,21.39013 32.46485,33.65625 2.92269,3.86994 5.41208,8.00884 7.91992,12.15234 4.28207,6.40489 7.18477,13.55338 10.39844,20.52344 3.40637,9.58524 6.79971,19.06792 8.76953,29.04688 l 1.57031,7.95312 c 0.0109,11.80716 1.52565,23.20903 -5.40624,33.51172 -9.10636,12.99517 -24.25288,16.80093 -38.31546,18.04772 -11.02851,0.97779 -19.0435,-1.83981 -32.07021,-8.64638 -19.81777,-10.35243 -24.27124,-22.53196 -26.25375,-43.11107 -7.26556,-0.42565 -9.36622,-0.54159 -26.75946,-1.23084 l -0.43707,2.15539 c -0.74111,5.50751 -0.26633,10.3072 0.80272,15.77344 l 1.46679,7.5 c 1.47333,7.98116 3.96514,15.09744 8.2793,21.99609 3.40478,5.34612 6.35554,8.8645 10.80469,12.67188 5.38003,5.61735 10.33424,8.7249 17.25586,12.18945 14.91349,8.83294 40.93088,14.70954 57.97461,17.81446 0.6625,0.17333 19.87057,4.5071 34.5,1.67578 4.11463,-0.37326 7.72729,-1.97147 11.5,-3.50782 l 6,-2.4414 c 25.28532,-14.4236 16.45589,-11.17252 32.5,-20.71875 23.31668,-9.47634 50.82118,-3.27311 74.5,1.94132 22.9436,5.05252 33.29248,3.34501 101.90625,7.74756 33.01626,13.53187 61.06358,33.16692 85.70898,58.60987 17.7277,18.29849 61.5542,67.20653 78.5361,102.98564 31.5892,-3.02986 63.1532,-2.86383 94.8487,-2.08524 18.5312,0.74382 35.1652,3.22315 53.5398,2.28669 l 3.1087,-0.26879 -1.1895,-1.95736 -6.5508,-11.9707 c -14.0007,-24.23861 -30.3561,-47.5184 -50.5586,-66.96875 -17.3111,-16.92027 -34.0404,-33.90378 -53.8496,-47.09961 -10.2792,-6.88085 -20.5213,-13.80561 -31,-20.37891 -9.8467,-5.74844 -19.0079,-12.47652 -28.0899,-19.33398 l 0.6504,-3.09375 0.6504,-3.09375 0.8203,-0.87695 0.8204,-0.875 12.9335,0.0898 c 18.0055,-0.33723 35.8712,4.55856 52.7149,10.73238 l 9,3.30078 2.9219,1.31446 c 27.811,12.51154 57.9469,32.0492 62.8574,35.76561 18.7284,13.31247 36.6373,27.15021 53.1308,43.61914 14.198,13.35895 25.7486,29.20458 37.2129,44.92969 16.6369,22.81984 30.5551,52.61007 42.2989,89.83789 14.3259,38.34756 13.1783,79.11712 7.0781,119.16211 -6.8204,44.76802 -8.8644,57.136 -29.3887,89.98242 l -3.1113,4.98242 -8.6152,10.22071 -8.6133,10.22265 c -6.952,8.70156 -16.7197,14.17959 -25.7383,20.49024 -14.8892,10.30789 -23.8181,13.94303 -33.5332,17.88086 l -8.5,3.44531 c -16.4859,5.17091 -33.2204,9.93936 -50.5,11.03711 -14.0401,2.05362 -27.3584,-0.9566 -41,-3.71484 -14.7162,-2.97282 -29.7509,-9.87251 -48.8965,-19.94141 -25.3614,-15.0336 -66.5682,-54.12433 -75.8535,-73.10547 -39.82811,-50.6976 -69.24153,-110.15606 -104.96292,-163.5 -3.7529,-5.75825 -7.50836,-11.51481 -11.26368,-17.27148 -0.62218,-2.31693 -1.7389,-4.25655 -3.04687,-6.22852 -6.62556,-11.66301 -16.10451,-20.78375 -25.3418,-30.39062 l -16.45117,-17.10938 c -9.82096,-10.46357 -20.38712,-18.22632 -32.11523,-25.3125 l -13.48828,-6.59375 c -9.85352,-4.42313 -17.3051,-6.92737 -26.68358,-10.01592 -12.13745,-4.86288 -24.3728,-6.86536 -37.38867,-7.23046 l -16.22805,1.90335 C 739.25359,578.30599 732.84563,571.24493 726.10156,564.9254 712.88187,551.32889 697.58868,541.66572 680.82031,533.18321 641.24128,512.28574 610.62235,506.64701 566.5,509.96642 c -5.42349,0.61356 -23.56346,3.99995 -42.33789,13.45117 -8.77735,6.95322 -8.03312,11.87373 -19.95703,13.93593 -19.78014,-5.68603 -27.88711,-7.28121 -57.57422,-5.36914 -5.60657,0.36114 -44.83488,3.51273 -88.13086,23.24414 -19.53348,8.83858 -37.70868,20.18794 -55,32.875 -18.53715,11.13578 -33.83218,26.13591 -49,41.5 -17.76348,19.29517 -28.99426,41.65586 -38.55861,66.20117 -8.56065,19.52782 -10.11138,40.57381 -13.24024,61.35156 l 1.16797,28.82227 0.15999,2.02572 1.13689,0.0739 5.0039,-7.125 c 9.70624,-14.33026 23.97439,-25.97305 40.53906,-31.38281 5.6024,-1.89782 7.57292,-0.58089 12.47461,1.7461 l 0.45313,1.17968 0.45312,1.18164 -7.12109,14.91211 c -6.38979,10.8676 -9.72406,22.36294 -12.83203,34.41016 -5.70228,22.10337 -14.89051,64.05176 -14.91794,104.5 -0.0653,96.31808 32.28951,171.12898 43.13675,193.49998 24.67268,52.1798 53.55887,102.0037 94.60547,143.0273 61.1733,61.1257 74.94382,72.8138 137.53906,101.0645 65.22152,33.2765 136.96329,58.1996 211,51.8608 22.55069,-1.3191 44.77618,-5.0963 67,-8.916 30.07302,-4.5926 60.23667,-4.9838 90.48047,-2.9023 l 13.48047,0.9257 2.76953,3.0313 2.76953,3.0332 v 1.1445 1.1446 l -4,5.7031 c -6.88032,9.4864 -10.99748,20.0744 -10.58008,31.8848 -0.5297,15.0478 4.23706,29.0188 8.80078,43.1093 8.12649,12.4642 17.20673,19.9863 31.7793,23.8965 l 6.5,1.7442 3.06477,0.6452 0.91765,-2.1179 c 3.4673,-15.1764 9.10765,-30.5831 18.53516,-43.3027 10.64453,-16.0864 26.91559,-24.8891 43.48242,-33.5723 9.33746,-2.5839 20.02236,-2.9787 27.60036,-2.8409 l 8.55,1.1768 c 6.2384,1.9644 9.0775,2.5219 11.8496,4.2188 6.6593,4.4425 13.2909,8.9155 20,13.2832 4.519,4.0862 15.4019,12.065 21.4082,37.8437 4.7591,20.4512 2.3983,50.153 -11.9637,70.2071 l -4.4453,6.209 c -6.8358,8.5759 -15.14,14.0103 -25.5395,17.4655 -18.0715,4.2461 -37.2424,8.4673 -56.35616,6.3927 -84.51291,-9.1735 -105.96536,-29.2156 -183.36211,-31.8192 -39.26605,-2.7766 -75.66499,10.9826 -111.375,24.9043 0,0 -7.92123,3.5719 -11.63281,5.4542 -4.18279,2.1214 -11.86719,6.6376 -11.86719,6.6376 -23.89051,13.3118 -41.51248,32.3129 -55.87822,55.084 -4.20653,6.6678 -19.45732,41.1596 -11.47416,102.8809 4.19165,32.4075 19.95439,57.2984 43.63946,79.0332 15.11927,15.9653 31.35703,23.8589 48.90488,35.9882 27.44868,14.9887 56.86462,21.894 64.68691,23.5371 34.64736,7.2732 35.73519,1.9507 63.25391,10.6446 33.19199,10.2993 54.38404,29.0575 76.08984,54.8789 11.22617,19.267 11.74596,36.9444 9.48438,55.6133 -0.46888,3.8705 -4.66253,10.7268 -4.66253,10.7268 -12.56669,19.8533 -30.10161,27.7858 -49.98005,36.9314 0,0 -1.78154,0.6401 -2.66057,0.953 -0.86676,0.3084 -2.55398,0.8988 -2.55398,0.8988 -0.23448,0.6662 -0.14934,1.1757 -0.15269,1.7947 0,0 0.81115,1.0495 1.2168,1.5742 0.4062,0.5254 1.21875,1.5761 1.21875,1.5761 0,0 4.45006,2.2534 6.84263,2.8913 14.78136,1.8278 30.64613,1.0779 45.32615,-1.5431 25.72915,-4.5938 49.84439,-12.8387 70.96367,-28.134 27.20968,-19.7061 31.30877,-28.8738 36.93869,-43.366 5.0097,-12.8957 6.9984,-26.0319 0.2433,-43.5547 -13.21028,-5.9906 -23.63753,-21.4141 -25.15545,-35.9649 -0.80021,-7.6709 0.74928,-18.0463 9.06275,-21.2888 6.83212,-2.6647 19.9388,-2.9045 25.4735,-1.6668 5.422,1.2125 10.8908,1.9733 16.3025,1.9438 10.4273,-3.0422 12.7332,-13.7638 17.3555,-21.6817 7.6002,-11.384 11.9841,-17.7193 25.6445,-26.7851 32.9808,-29.3064 48.3428,-34.5986 105.6543,-26.3106 2.2822,0.3338 5.2152,0.3393 8.5824,0.2364 0.3612,-2.2251 -0.2171,-3.7513 -1.7367,-5.9298 -2.8319,-5.6234 -7.0335,-10.0487 -11.2207,-14.6855 -11.1441,-12.341 -13.5911,-14.1877 -30.1347,-23.8528 -16.8948,-8.0325 -33.2887,-11.5077 -51.1367,-14.8445 -15.8779,-2.7106 -31.1832,-3.2704 -47.1289,-1.6718 -36.8899,4.4122 -81.41788,22.2457 -107.27551,49.6015 -22.31077,23.6033 -29.52475,34.8733 -65.05273,34.5395 -57.97572,-0.5446 -65.40558,-2.9411 -74.86514,-6.0522 -40.95173,-10.5727 -54.38159,-15.4963 -81.3291,-48.3137 -13.23901,-13.9493 -17.66521,-31.403 -17.88775,-50.1345 -0.22254,-18.7315 7.02451,-41.4569 20.01172,-56.7383 17.22902,-20.2726 43.57739,-32.9825 70.0039,-38.3379 35.92674,-7.7086 72.73169,-1.4177 108.52344,3.9668 50.69263,10.7623 101.67537,19.3435 153.09377,18.9336 6.2857,-0.05 50.6655,-2.0107 103.2832,-45.8926 135.9246,-158.0898 32.7964,-249.3868 27.9676,-253.5136 l -1.9219,-1.7891 -1.9218,-1.7891 v -2.0527 -2.0527 l 2.25,-2.9805 c 4.0271,-5.3367 8.0854,-11.0279 13.6738,-14.6875 16.8754,-10.3878 41.8132,-18.1223 56.7246,-17.4548 14.8149,0.6631 8.172,0.5956 30.6913,3.4978 -0.57,-9.458 -7.4794,-18.3242 -12.1444,-26.5645 -14.4581,-20.014 -32.0454,-34.3414 -53.6953,-44.5156 -18.841,-8.8542 -40.0489,-11.1236 -60.8594,-11.0903 -26.6175,0.041 -48.3031,0.8434 -90.832,33.0864 -40.4066,-26.4646 -141.35258,-20.0152 -151.80867,-19.2676 -50.58149,6.4065 -98.39053,8.453 -149.5,8.1406 -47.2765,-1.2019 -103.83924,-21.8036 -110.47656,-23.1406 -7.64766,-3.5342 -15.18106,-7.311 -22.75196,-11.0059 -18.68658,-10.0677 -38.83036,-18.9691 -55.875,-31.6054 -30.6381,-20.5714 -56.54972,-47.1202 -82.01562,-73.7344 -28.70655,-35.0244 -49.17846,-76.0923 -59.36491,-120.22051 -9.59364,-41.59293 -6.4916,-98.46463 13.56641,-144.94531 20.78455,-48.1428 50.3835,-76.34793 90.91211,-98.08985 57.86353,-29.22232 99.04891,-24.4599 107.06641,-22.63281 39.46553,8.98261 62.58821,16.8484 105.47656,57.59961 9.27766,11.99719 40.19219,57.90167 42.11719,65.56641 l -3.15541,2.64094 -8.78187,-6.09649 -9.49436,-5.55706 C 708.81686,814.83478 643.76836,795.35162 579.0625,824.29102 c -6.56827,3.50976 -10.21786,5.31902 -14.22852,11.58593 11.22232,18.31538 26.31979,33.17533 41.39258,48.29102 22.03594,21.02946 41.2624,35.35817 62.81055,52.09765 55.25753,-10.69739 75.60796,-1.44908 118.46289,19.23442 l 0.58203,5 c -6.23697,4.04922 -12.09648,5.94517 -19.46289,7.0293 -17.88743,2.6358 3.29798,-0.91901 -58.11914,5.33202 -4.74272,-0.37197 -9.48563,-0.74158 -14.22852,-1.11133 l -0.58789,0.95312 -0.58984,0.95313 c 10.15148,15.97234 22.8931,30.27392 37.32031,42.34372 17.00454,14.226 36.37505,28.5378 54.45313,42.1562 49.46617,-4.879 62.77138,-5.2066 80.63281,-1.0624 34.60236,8.0284 64.59628,28.9167 94,48.5507 37.44693,25.2548 78.9929,40.8686 123.1777,47.5157 50.5935,7.6112 97.1342,5.5094 142.672,-4.507 94.6493,-20.8189 166.5858,-74.3243 225.4003,-165.39536 47.0171,-65.21873 72.1744,-150.90933 80.7637,-230.25781 4.0053,-39.92516 7.7188,-80.06343 0.1992,-119.81641 -45.3584,-13.50925 -62.2207,-47.27202 -63.2129,-63.68359 l 4.6641,-0.66016 c 20.1195,12.80987 42.4859,16.87037 64.039,14.97071 -0.5069,-40.96852 -17.8933,-78.46442 -31.5195,-116.31055 -25.4377,3.25784 -44.7563,1.99139 -70.1836,-3.11523 -6.8698,-0.97899 -54.1117,-8.55452 -61.6035,-32.68165 l 0.9394,-0.93945 0.9395,-0.93945 c 65.7619,8.00817 110.7824,-10.78923 138.2246,-23.74805 v -1.03125 -1.03125 c -22.8602,-27.62057 -48.4473,-48.78987 -77.3848,-68.8789 -101.3524,44.80466 -182.8263,6.3e-4 -187.4668,-18.28324 l 2.0039,-2.0039 2.002,-2.00196 c 86.6206,2.25607 102.3461,-13.0184 184.8594,-20.71484 1.3286,-0.42227 2.6575,-0.84393 3.9863,-1.26563 l -0.01,-1.18164 -0.01,-1.18359 c -65.6532,-67.0712 -88.1872,-54.50533 -142.2788,-111.8457 z m -873.0243,44.42134 c -39.01334,3.23778 -56.00189,26.7189 -67.81104,61.52594 0,0 -1.87542,4.37229 -1.56507,4.12102 5.28319,-4.27756 3.19921,-2.58976 3.19921,-2.58976 l 5.63672,-3.01562 c 10.63946,-6.1441 22.83867,-7.29106 34.86133,-7.39063 32.9674,-1.16005 58.11116,21.53874 80.50195,42.89453 14.31473,12.70501 23.6456,23.64141 36.23912,32.72665 52.75421,38.1139 121.55596,25.67247 183.4511,25.14526 -2.44158,-10.87994 -5.16419,-18.056 -9.31696,-28.32494 l -5.48066,0.0151 -24.94531,-0.40625 c -30.33619,1.63222 -58.2112,-8.93664 -83.94727,-24.12109 -23.62373,-13.93816 -50.97997,-37.39731 -64.5,-52.66016 -13.43295,-14.87659 -27.32975,-29.85403 -43.5,-41.69921 -16.72983,-7.70707 -24.54055,-7.47844 -36.23253,-6.80972 z" />
    <path
       style="display:inline;opacity:1;fill:#000000"
       d="m 942.15359,256.07639 c -21.78332,1.08521 -8.68919,-0.92691 -66.31375,3.81228 -1.26717,0.10422 -2.51065,1.23719 -2.93554,2.43555 -0.46985,1.32519 -0.80976,4.21555 0.5957,4.17578 l 11.25,-0.31836 11.25,-0.31836 v 6.94141 c 0.90612,29.46168 21.04487,48.67207 50.5,47.73242 11.56306,0.18943 22.87695,-5.48442 30.82422,-13.76953 l 4.82617,-5.02735 7.34961,7.10743 c 10.8843,0.30084 21.6048,1.65619 32.3438,3.30664 1.3848,-0.74265 3.2478,-0.67218 4.1562,-2.22461 0.6596,-1.12733 0,-3.87891 0,-3.87891 -8.1432,-4.20679 -10.7957,-4.81942 -32.95117,-5.02534 -21.6315,-17.50029 -38.38913,-45.57208 -50.89524,-44.94905 z"
       id="path72" />
    <path
       style="display:inline;opacity:1;fill:#e00e00;fill-opacity:1"
       d="m 943.57812,265.5 c 7.11293,4.04482 12.45633,10.29672 18.25977,15.96289 l 12.4707,12.17383 c -3.18827,14.03759 -18.34979,17.41871 -32.80859,18.91211 -26.0088,-4.22643 -35.73178,-20.12134 -37.26172,-39.2168 l -0.41406,-5.16797 c 0.62099,-1.4705 1.81092,-2.23717 4.14062,-2.21679 l 17.80664,-0.22266 z"
       id="path3" />
  </g>
</svg>
