<?xml version="1.0" encoding="UTF-8"?>
<!-- Generator: Adobe Illustrator 21.1.0, SVG Export Plug-In . SVG Version: 6.00 Build 0)  -->
<svg width="471.58" height="594.09" version="1.1" viewBox="0 0 471.58 594.09" xml:space="preserve" xmlns="http://www.w3.org/2000/svg">
<style type="text/css">
	.st0{fill:#2172DC;}
	.st1{clip-path:url(#SVGID_2_);}
	.st2{clip-path:url(#SVGID_4_);fill:#2172DC;}
	.st3{clip-path:url(#SVGID_6_);}
	.st4{clip-path:url(#SVGID_8_);fill:#B4A76C;}
	.st5{clip-path:url(#SVGID_10_);}
	.st6{clip-path:url(#SVGID_12_);fill:#B4A76C;}
	.st7{clip-path:url(#SVGID_14_);}
	.st8{clip-path:url(#SVGID_16_);}
	.st9{clip-path:url(#SVGID_18_);fill:#E0E4E8;}
</style>

<g stroke-width="10.961"><path d="m471.45 0c2.1922 204.97-20.826 416.52-233.47 594.09-213.74-177.57-240.05-390.22-237.86-594.09z" fill="#2172dc"/><path d="m234.69 146.88v93.169l94.266-89.881 115.32 120.67c8.7689-37.268 10.294-45.419 15.774-79.398l-127.81-136.64z" fill="#b4a76c"/><path d="m234.69 333.22v93.169l95.362-89.881 63.574 66.863c15.346-30.691 18.634-37.268 29.595-65.767l-89.881-95.362z" fill="#b4a76c"/><path d="m233.59 10.961c-38.364 26.307-67.959 64.671-74.536 92.073-16.442 66.863 43.844 84.401 49.325 225.8-12.057-114-47.133-155.65-73.439-185.24-38.364-38.364-88.785-18.634-101.94 20.826-26.307 77.824 41.652 156.74 99.746 154.55-10.961-9.865-25.211-29.595-23.018-47.133 4.3844-33.979 35.076-38.364 51.517-21.922 16.442 16.442 26.307 80.016 26.307 80.016h-17.538v43.844h14.249s-7.6728 37.268-32.883 36.172c-15.346-1.0961-23.018-14.249-20.826-26.307-7.6728 2.1922-21.922 23.018-19.73 40.556 4.3844 31.787 48.229 44.941 69.055 14.249 9.865-14.249 19.73-28.499 25.211-62.478-4.3844 55.902-19.73 62.478-25.211 110.71-2.1922 30.691 42.748 60.286 53.709 64.671z" fill="#e0e4e8"/></g>
</svg>
